fontCallback.success({"glyphs":{"S":{"x_min":48.609375,"x_max":715.328125,"ha":764,"o":"m 279 462 q 194 502 231 480 q 130 553 156 523 q 89 625 104 583 q 75 725 75 666 q 99 850 75 795 q 168 941 123 904 q 275 996 212 977 q 415 1015 337 1015 q 547 1002 486 1015 q 677 966 609 990 q 633 808 669 886 q 591 825 612 816 q 545 838 569 833 q 490 847 520 844 q 420 851 459 851 q 372 847 397 851 q 329 832 348 843 q 297 799 309 820 q 284 743 284 777 q 294 696 284 715 q 320 664 304 677 q 358 642 337 651 q 400 625 379 633 l 483 593 q 579 550 536 572 q 652 495 622 527 q 698 416 682 462 q 715 301 715 369 q 689 172 715 230 q 615 72 663 113 q 495 6 566 30 q 330 -16 423 -16 q 248 -13 284 -16 q 179 -4 212 -11 q 115 11 147 1 q 48 34 83 20 q 63 118 52 75 q 90 206 75 162 q 200 171 148 183 q 309 159 251 159 q 447 192 397 159 q 497 291 497 225 q 485 347 497 325 q 454 384 473 369 q 412 410 436 400 q 363 430 388 420 l 279 462 "},"¦":{"x_min":141.671875,"x_max":331.96875,"ha":474,"o":"m 141 1077 q 236 1086 188 1086 q 331 1077 283 1086 l 331 612 q 237 604 283 604 q 141 612 188 604 l 141 1077 m 141 231 q 236 240 188 240 q 331 231 283 240 l 331 -233 q 237 -241 283 -241 q 141 -233 188 -241 l 141 231 "},"/":{"x_min":16.671875,"x_max":551.4375,"ha":568,"o":"m 354 998 q 454 1007 405 1007 q 551 998 501 1007 l 212 0 q 113 -8 162 -8 q 16 0 66 -8 l 354 998 "},"y":{"x_min":13.890625,"x_max":741.71875,"ha":753,"o":"m 13 718 q 70 725 45 725 q 115 726 94 726 q 172 725 143 726 q 225 718 201 723 l 375 91 l 544 718 q 638 726 590 726 q 683 725 659 726 q 741 718 707 725 l 473 -169 q 434 -256 456 -222 q 381 -311 411 -291 q 316 -338 352 -330 q 238 -345 280 -345 q 168 -341 200 -345 q 106 -327 137 -336 q 105 -316 105 -320 q 105 -305 105 -311 q 113 -242 105 -272 q 131 -184 120 -212 q 165 -192 144 -188 q 206 -195 186 -195 q 240 -193 223 -195 q 272 -181 256 -191 q 302 -148 288 -170 q 327 -86 316 -126 l 351 0 q 317 -2 336 -1 q 279 -2 298 -2 q 250 -2 263 -2 q 225 0 236 -2 l 13 718 "},"Á":{"x_min":13.890625,"x_max":868.125,"ha":883,"o":"m 329 998 q 384 1004 358 1002 q 443 1007 411 1007 q 497 1004 470 1007 q 555 998 523 1002 l 868 0 q 757 -8 811 -8 q 654 0 704 -8 l 598 200 l 268 200 l 211 0 q 115 -8 161 -8 q 13 0 63 -8 l 329 998 m 551 368 l 436 787 l 315 368 l 551 368 m 452 1229 q 520 1236 483 1233 q 594 1238 557 1238 q 664 1236 630 1238 q 721 1229 697 1233 l 516 1084 q 466 1077 491 1079 q 418 1076 441 1076 q 316 1084 366 1076 l 452 1229 "},"g":{"x_min":45.84375,"x_max":780.625,"ha":786,"o":"m 500 119 q 686 63 626 116 q 745 -88 745 9 q 715 -195 745 -147 q 632 -276 684 -243 q 506 -327 579 -309 q 351 -345 434 -345 q 209 -332 268 -345 q 114 -295 151 -319 q 61 -237 77 -272 q 45 -161 45 -202 q 75 -58 45 -98 q 155 12 105 -18 q 104 60 123 31 q 86 133 86 88 q 108 219 86 186 q 173 283 130 252 q 98 368 125 318 q 72 479 72 418 q 93 579 72 533 q 153 660 113 626 q 250 713 193 694 q 377 733 306 733 q 505 711 447 733 q 602 657 563 690 q 668 709 629 691 q 773 726 707 726 q 778 691 776 708 q 780 654 780 673 q 779 609 780 632 q 773 563 777 587 l 661 563 q 673 530 668 550 q 679 479 679 511 q 659 378 679 425 q 600 298 638 331 q 504 245 561 265 q 377 226 448 226 q 270 238 318 226 q 241 206 247 223 q 236 173 236 188 q 250 137 236 151 q 309 122 265 123 l 500 119 m 322 -25 q 271 -31 291 -23 q 239 -53 251 -40 q 222 -82 227 -66 q 218 -113 218 -98 q 257 -185 218 -166 q 363 -204 297 -204 q 504 -176 451 -204 q 558 -101 558 -148 q 554 -75 558 -87 q 541 -52 551 -62 q 514 -34 531 -41 q 468 -27 497 -27 l 322 -25 m 379 354 q 463 387 437 354 q 488 479 488 420 q 463 571 488 537 q 379 605 437 605 q 293 571 319 605 q 266 479 266 537 q 293 387 266 420 q 379 354 319 354 "},"²":{"x_min":73.609375,"x_max":538.9375,"ha":625,"o":"m 73 450 l 258 652 q 341 800 341 744 q 319 843 341 826 q 256 861 297 861 q 194 854 220 861 q 131 832 168 848 q 109 893 119 861 q 94 961 98 925 q 181 988 140 979 q 276 998 222 998 q 442 950 379 998 q 505 815 505 902 q 471 696 505 748 q 380 579 437 644 l 358 555 l 533 555 q 538 491 538 529 q 533 423 538 451 l 84 423 l 73 450 "},"ë":{"x_min":59.734375,"x_max":722.28125,"ha":781,"o":"m 254 298 q 312 177 259 215 q 451 140 365 140 q 547 149 498 140 q 641 175 597 158 q 668 108 657 147 q 680 25 679 69 q 436 -16 572 -16 q 264 11 336 -16 q 147 88 193 38 q 81 205 102 137 q 59 354 59 273 q 81 502 59 433 q 147 623 104 572 q 256 704 191 675 q 406 734 320 734 q 540 708 481 734 q 639 636 598 682 q 701 527 680 590 q 722 391 722 463 q 720 339 722 365 q 715 298 718 313 l 254 298 m 536 436 q 499 543 533 502 q 404 584 465 584 q 298 545 334 584 q 255 436 262 506 l 536 436 m 148 823 q 143 864 145 844 q 141 905 141 884 q 143 945 141 925 q 148 987 145 966 q 193 993 169 991 q 237 995 217 995 q 280 993 256 995 q 327 987 305 991 q 332 946 331 966 q 334 905 334 926 q 332 865 334 886 q 327 823 331 844 q 281 818 305 819 q 237 816 257 816 q 194 818 219 816 q 148 823 169 819 m 455 823 q 446 905 446 865 q 455 987 446 945 q 500 993 475 991 q 544 995 524 995 q 587 993 563 995 q 634 987 612 991 q 638 946 637 966 q 639 905 639 926 q 638 865 639 886 q 634 823 637 844 q 587 818 612 819 q 544 816 563 816 q 500 818 524 816 q 455 823 475 819 "},"Î":{"x_min":-68.21875,"x_max":467.9375,"ha":399,"o":"m 97 998 q 198 1007 148 1007 q 301 998 248 1007 l 301 0 q 200 -8 248 -8 q 97 0 148 -8 l 97 998 m 79 1229 q 130 1234 99 1232 q 199 1237 160 1237 q 267 1234 237 1237 q 320 1229 298 1232 l 467 1084 q 421 1078 448 1080 q 367 1076 394 1076 q 312 1078 344 1076 q 263 1084 280 1080 l 198 1154 l 135 1084 q 113 1080 127 1082 q 84 1078 99 1079 q 54 1077 69 1077 q 26 1076 38 1076 q -24 1078 0 1076 q -68 1084 -48 1080 l 79 1229 "},"e":{"x_min":59.734375,"x_max":722.28125,"ha":781,"o":"m 254 298 q 312 177 259 215 q 451 140 365 140 q 547 149 498 140 q 641 175 597 158 q 668 108 657 147 q 680 25 679 69 q 436 -16 572 -16 q 264 11 336 -16 q 147 88 193 38 q 81 205 102 137 q 59 354 59 273 q 81 502 59 433 q 147 623 104 572 q 256 704 191 675 q 406 734 320 734 q 540 708 481 734 q 639 636 598 682 q 701 527 680 590 q 722 391 722 463 q 720 339 722 365 q 715 298 718 313 l 254 298 m 536 436 q 499 543 533 502 q 404 584 465 584 q 298 545 334 584 q 255 436 262 506 l 536 436 "},"Ã":{"x_min":13.890625,"x_max":868.125,"ha":883,"o":"m 329 998 q 384 1004 358 1002 q 443 1007 411 1007 q 497 1004 470 1007 q 555 998 523 1002 l 868 0 q 757 -8 811 -8 q 654 0 704 -8 l 598 200 l 268 200 l 211 0 q 115 -8 161 -8 q 13 0 63 -8 l 329 998 m 551 368 l 436 787 l 315 368 l 551 368 m 176 1198 q 240 1252 199 1229 q 334 1276 281 1276 q 386 1267 361 1276 q 437 1248 412 1258 q 488 1228 462 1237 q 541 1219 513 1219 q 588 1228 566 1219 q 640 1266 609 1237 q 702 1161 686 1218 q 638 1108 679 1130 q 549 1086 598 1086 q 493 1095 520 1086 q 438 1114 465 1104 q 386 1134 412 1125 q 336 1143 361 1143 q 288 1133 308 1143 q 237 1095 268 1123 q 199 1145 216 1120 q 176 1198 183 1169 "},"J":{"x_min":34.71875,"x_max":480.59375,"ha":571,"o":"m 277 826 l 112 826 q 106 868 108 845 q 104 913 104 891 q 112 998 104 958 l 480 998 l 480 265 q 456 135 480 188 q 389 47 431 81 q 289 -1 347 13 q 163 -16 231 -16 q 104 -12 140 -16 q 37 0 69 -8 q 35 19 36 9 q 34 40 34 29 q 58 168 34 104 q 91 161 73 165 q 129 156 109 156 q 179 159 152 156 q 227 176 205 162 q 263 217 248 190 q 277 294 277 244 l 277 826 "},"»":{"x_min":43.0625,"x_max":831.53125,"ha":888,"o":"m 256 369 l 43 677 q 152 686 97 686 q 245 677 201 686 l 462 369 l 245 61 q 152 52 201 52 q 43 61 97 52 l 256 369 m 625 369 l 412 677 q 521 686 466 686 q 614 677 570 686 l 831 369 l 614 61 q 521 52 570 52 q 412 61 466 52 l 625 369 "},"©":{"x_min":55.5625,"x_max":1086.203125,"ha":1142,"o":"m 713 365 q 735 309 727 343 q 743 240 743 276 q 667 220 702 225 q 591 215 632 215 q 476 238 526 215 q 393 299 426 261 q 342 389 359 337 q 325 500 325 441 q 342 609 325 556 q 393 700 359 661 q 475 763 426 740 q 586 787 523 787 q 664 782 633 787 q 736 761 695 776 q 730 698 736 733 q 711 636 725 663 q 655 650 677 647 q 605 654 633 654 q 511 614 544 654 q 477 500 477 575 q 513 383 477 420 q 605 345 548 345 q 658 348 637 345 q 713 365 679 351 m 570 84 q 740 116 665 84 q 867 204 815 148 q 947 335 919 259 q 975 498 975 411 q 947 661 975 586 q 867 793 919 737 q 740 880 815 848 q 570 912 665 912 q 401 880 476 912 q 274 793 326 848 q 194 661 222 737 q 166 498 166 586 q 194 335 166 411 q 274 204 222 259 q 401 116 326 148 q 570 84 476 84 m 570 -18 q 360 21 455 -18 q 197 129 265 61 q 93 293 130 198 q 55 498 55 387 q 93 703 55 608 q 197 867 130 798 q 360 975 265 936 q 570 1015 455 1015 q 781 976 686 1015 q 943 868 876 937 q 1048 704 1011 798 q 1086 498 1086 609 q 1048 293 1086 387 q 943 129 1011 198 q 781 21 876 61 q 570 -18 686 -18 "},"ò":{"x_min":56.953125,"x_max":747.28125,"ha":806,"o":"m 401 -16 q 249 11 313 -16 q 142 90 184 40 q 78 209 100 141 q 56 356 56 277 q 78 505 56 436 q 142 625 100 575 q 249 705 184 676 q 401 734 313 734 q 554 705 488 734 q 662 625 619 676 q 726 505 705 575 q 747 356 747 436 q 726 209 747 277 q 662 90 705 141 q 554 11 619 40 q 401 -16 488 -16 m 401 133 q 513 190 479 133 q 547 356 547 248 q 513 522 547 465 q 401 580 479 580 q 291 522 325 580 q 256 356 256 465 q 291 190 256 248 q 401 133 325 133 m 119 998 q 172 1004 146 1002 q 234 1007 198 1007 q 359 998 302 1007 l 514 827 q 424 819 469 819 q 371 822 396 819 q 328 827 346 825 l 119 998 "},"^":{"x_min":69.453125,"x_max":693.109375,"ha":763,"o":"m 288 998 q 381 1007 334 1007 q 476 998 426 1007 l 693 504 q 641 495 665 497 q 600 494 618 494 q 554 495 576 494 q 512 502 531 497 l 376 819 l 250 502 q 206 496 229 498 q 162 494 183 494 q 122 495 144 494 q 69 504 100 497 l 288 998 "},"«":{"x_min":55.5625,"x_max":846.03125,"ha":889,"o":"m 55 369 l 272 677 q 365 686 315 686 q 475 677 420 686 l 261 369 l 475 61 q 365 52 420 52 q 272 61 315 52 l 55 369 m 426 369 l 643 677 q 736 686 686 686 q 846 677 791 686 l 632 369 l 846 61 q 736 52 791 52 q 643 61 686 52 l 426 369 "},"D":{"x_min":101.390625,"x_max":901.46875,"ha":972,"o":"m 101 998 q 223 1010 159 1005 q 365 1015 287 1015 q 764 884 627 1015 q 901 493 901 754 q 762 106 901 230 q 350 -16 623 -16 q 219 -11 279 -16 q 101 0 159 -6 l 101 998 m 305 161 q 337 158 318 159 q 384 156 356 156 q 503 171 448 156 q 598 225 558 186 q 662 329 638 263 q 686 497 686 394 q 662 663 686 597 q 598 769 638 730 q 506 824 558 808 q 395 840 454 840 q 350 839 376 840 q 305 836 325 838 l 305 161 "},"ÿ":{"x_min":13.890625,"x_max":741.71875,"ha":753,"o":"m 13 718 q 70 725 45 725 q 115 726 94 726 q 172 725 143 726 q 225 718 201 723 l 375 91 l 544 718 q 638 726 590 726 q 683 725 659 726 q 741 718 707 725 l 473 -169 q 434 -256 456 -222 q 381 -311 411 -291 q 316 -338 352 -330 q 238 -345 280 -345 q 168 -341 200 -345 q 106 -327 137 -336 q 105 -316 105 -320 q 105 -305 105 -311 q 113 -242 105 -272 q 131 -184 120 -212 q 165 -192 144 -188 q 206 -195 186 -195 q 240 -193 223 -195 q 272 -181 256 -191 q 302 -148 288 -170 q 327 -86 316 -126 l 351 0 q 317 -2 336 -1 q 279 -2 298 -2 q 250 -2 263 -2 q 225 0 236 -2 l 13 718 m 137 823 q 132 864 134 844 q 130 905 130 884 q 132 945 130 925 q 137 987 134 966 q 182 993 158 991 q 226 995 206 995 q 269 993 245 995 q 316 987 294 991 q 321 946 320 966 q 323 905 323 926 q 321 865 323 886 q 316 823 320 844 q 270 818 294 819 q 226 816 246 816 q 183 818 208 816 q 137 823 158 819 m 444 823 q 435 905 435 865 q 444 987 435 945 q 489 993 464 991 q 533 995 513 995 q 576 993 552 995 q 623 987 601 991 q 627 946 626 966 q 628 905 628 926 q 627 865 628 886 q 623 823 626 844 q 576 818 601 819 q 533 816 552 816 q 489 818 513 816 q 444 823 464 819 "},"í":{"x_min":34.71875,"x_max":459.875,"ha":426,"o":"m 136 568 l 43 568 q 36 606 38 586 q 34 644 34 626 q 43 718 34 682 l 329 718 l 329 0 q 231 -8 279 -8 q 136 0 186 -8 l 136 568 m 219 998 q 344 1007 275 1007 q 406 1004 380 1007 q 459 998 432 1002 l 250 827 q 207 822 232 825 q 154 819 182 819 q 64 827 109 819 l 219 998 "},"w":{"x_min":9.71875,"x_max":1109.8125,"ha":1120,"o":"m 9 716 q 70 725 41 723 q 118 726 98 726 q 172 725 145 726 q 222 718 198 723 l 337 187 l 470 718 q 565 726 513 726 q 625 723 601 725 q 666 718 648 722 l 797 197 l 911 718 q 955 724 934 722 q 1002 726 976 726 q 1049 725 1022 726 q 1109 716 1076 723 l 886 0 q 832 -5 861 -4 q 784 -6 804 -6 q 738 -5 763 -6 q 688 1 712 -4 l 558 476 l 423 0 q 368 -5 397 -4 q 320 -6 340 -6 q 275 -5 301 -6 q 226 1 250 -4 l 9 716 "},"$":{"x_min":70.84375,"x_max":737.5625,"ha":833,"o":"m 363 -16 l 352 -16 q 270 -13 306 -16 q 202 -4 234 -11 q 137 11 169 1 q 70 34 105 20 q 86 115 75 75 q 112 201 97 156 q 222 168 170 177 q 331 159 273 159 q 467 189 419 159 q 515 286 515 219 q 502 341 515 319 q 468 376 488 362 q 423 400 448 390 q 375 420 398 409 l 301 452 q 218 493 255 472 q 153 545 180 515 q 111 615 126 575 q 97 713 97 655 q 168 911 97 838 q 363 998 238 983 l 363 1145 q 423 1154 393 1154 q 484 1145 452 1154 l 484 1002 q 591 986 540 998 q 700 955 643 975 q 655 797 691 875 q 613 813 634 805 q 567 827 591 822 q 512 836 543 833 q 443 840 481 840 q 395 836 419 840 q 351 822 370 833 q 319 791 331 811 q 306 738 306 770 q 316 691 306 711 q 343 659 326 672 q 380 636 359 645 q 422 618 401 626 l 505 583 q 601 538 558 561 q 674 485 644 516 q 720 409 704 454 q 737 295 737 363 q 672 103 737 181 q 484 -2 608 25 l 484 -163 q 425 -172 455 -172 q 363 -163 394 -172 l 363 -16 "},"\\":{"x_min":20.828125,"x_max":555.59375,"ha":575,"o":"m 20 998 q 118 1007 70 1007 q 218 998 165 1007 l 555 0 q 458 -8 505 -8 q 359 0 409 -8 l 20 998 "},"Ì":{"x_min":-71.15625,"x_max":333.046875,"ha":399,"o":"m 97 998 q 198 1007 148 1007 q 301 998 248 1007 l 301 0 q 200 -8 248 -8 q 97 0 148 -8 l 97 998 m -71 1229 q -14 1236 -47 1233 q 55 1238 19 1238 q 129 1236 92 1238 q 196 1229 166 1233 l 333 1084 q 231 1076 283 1076 q 183 1077 208 1076 q 133 1084 158 1079 l -71 1229 "},"µ":{"x_min":95.84375,"x_max":745.890625,"ha":828,"o":"m 95 718 q 193 726 145 726 q 291 718 241 726 l 291 344 q 326 189 291 233 q 426 145 361 145 q 486 157 462 145 q 525 190 511 169 q 544 239 538 211 q 550 301 550 268 l 550 718 q 647 726 600 726 q 745 718 695 726 l 745 -1 q 716 -6 730 -4 q 679 -8 701 -8 q 641 -6 658 -8 q 604 0 623 -4 q 596 13 601 4 q 587 35 591 23 q 579 59 583 47 q 573 77 575 70 q 491 6 533 29 q 384 -16 448 -16 q 334 -11 358 -16 q 288 4 309 -5 l 288 -329 q 238 -334 262 -333 q 191 -336 215 -336 q 145 -334 168 -336 q 95 -329 122 -333 l 95 718 "},"Ç":{"x_min":72.234375,"x_max":804.234375,"ha":858,"o":"m 381 -150 l 436 -5 q 277 55 345 11 q 163 165 209 100 q 95 315 118 230 q 72 497 72 400 q 104 703 72 608 q 196 868 136 798 q 345 976 256 937 q 545 1015 433 1015 q 668 1007 612 1015 q 790 972 725 998 q 773 891 787 930 q 743 811 759 851 q 657 834 694 827 q 568 841 619 841 q 363 754 434 841 q 291 497 291 668 q 579 158 291 158 q 669 165 630 158 q 757 188 708 172 q 786 109 775 150 q 804 26 798 68 q 674 -8 732 0 q 550 -16 616 -16 q 541 -15 545 -16 q 533 -15 537 -15 l 512 -65 q 525 -63 519 -63 q 540 -62 531 -62 q 611 -72 581 -62 q 659 -101 640 -83 q 688 -142 679 -119 q 697 -191 697 -165 q 640 -299 697 -262 q 477 -336 583 -336 q 422 -333 454 -336 q 354 -320 390 -330 q 362 -269 356 -295 q 384 -219 368 -243 q 431 -231 409 -227 q 472 -234 454 -234 q 542 -224 522 -234 q 562 -191 562 -213 q 486 -154 562 -154 q 445 -156 466 -154 q 397 -169 425 -159 l 381 -150 "},"-":{"x_min":72.234375,"x_max":443.09375,"ha":515,"o":"m 434 466 q 443 381 443 425 q 434 295 443 337 l 80 295 q 72 380 72 337 q 80 466 72 425 l 434 466 "},"Q":{"x_min":70.84375,"x_max":962.578125,"ha":1008,"o":"m 962 -77 q 952 -160 959 -118 q 930 -240 945 -202 l 586 -184 q 593 -135 590 -155 q 600 -97 595 -115 q 609 -63 604 -80 q 622 -25 615 -45 l 962 -77 m 504 -16 q 309 22 391 -16 q 175 129 227 61 q 96 292 122 198 q 70 497 70 386 q 96 703 70 608 q 175 868 122 798 q 309 976 227 937 q 504 1015 391 1015 q 698 976 616 1015 q 833 868 780 937 q 911 703 886 798 q 937 497 937 608 q 911 292 937 386 q 833 129 886 198 q 698 22 780 61 q 504 -16 616 -16 m 504 152 q 719 497 719 152 q 667 755 719 669 q 505 841 615 841 q 287 497 287 841 q 504 152 287 152 "},"M":{"x_min":86.125,"x_max":1048.6875,"ha":1135,"o":"m 125 998 q 231 1007 180 1007 q 338 998 286 1007 l 568 426 l 804 998 q 900 1007 847 1007 q 1001 998 952 1007 l 1048 0 q 948 -8 995 -8 q 855 0 901 -8 l 830 677 l 627 208 q 587 203 608 205 q 545 201 566 201 q 509 202 527 201 q 472 208 491 204 l 283 687 l 263 0 q 177 -8 219 -8 q 86 0 133 -8 l 125 998 "},"C":{"x_min":72.234375,"x_max":804.234375,"ha":858,"o":"m 757 188 q 786 109 775 150 q 804 26 798 68 q 674 -8 732 0 q 550 -16 616 -16 q 343 21 431 -16 q 193 128 254 59 q 102 291 133 197 q 72 497 72 386 q 104 703 72 608 q 196 868 136 798 q 345 976 256 937 q 545 1015 433 1015 q 668 1007 612 1015 q 790 972 725 998 q 773 891 787 930 q 743 811 759 851 q 657 834 694 827 q 568 841 619 841 q 363 754 434 841 q 291 497 291 668 q 579 158 291 158 q 669 165 630 158 q 757 188 708 172 "},"!":{"x_min":97.234375,"x_max":318.078125,"ha":415,"o":"m 100 998 q 206 1007 154 1007 q 315 998 261 1007 l 301 319 q 208 311 252 311 q 113 319 161 311 l 100 998 m 105 0 q 97 101 97 51 q 105 204 97 151 q 206 212 156 212 q 309 204 256 212 q 318 102 318 151 q 309 0 318 51 q 208 -8 256 -8 q 105 0 156 -8 "},"ç":{"x_min":56.953125,"x_max":618.109375,"ha":660,"o":"m 320 -8 q 204 38 254 5 q 122 118 155 70 q 72 227 88 166 q 56 358 56 288 q 78 505 56 437 q 143 625 100 573 q 252 705 187 676 q 404 734 318 734 q 460 733 434 734 q 509 727 486 732 q 556 716 533 723 q 609 698 580 709 q 601 627 609 666 q 575 551 593 587 q 502 570 533 565 q 430 575 470 575 q 300 518 344 575 q 256 358 256 462 q 304 194 256 245 q 431 143 351 143 q 470 143 452 143 q 504 147 487 144 q 538 155 520 150 q 579 169 555 161 q 606 104 595 141 q 618 18 618 68 q 515 -9 562 -2 q 415 -16 468 -16 l 393 -73 q 402 -71 397 -72 q 415 -70 406 -70 q 529 -104 488 -70 q 570 -191 570 -138 q 511 -298 570 -262 q 355 -334 451 -334 q 306 -333 336 -334 q 244 -322 277 -331 q 251 -272 247 -300 q 269 -225 255 -245 q 313 -234 294 -231 q 355 -237 333 -237 q 418 -227 394 -237 q 441 -194 441 -218 q 419 -161 441 -170 q 361 -152 397 -152 q 318 -155 341 -152 q 276 -165 295 -158 l 266 -155 l 320 -8 "},"È":{"x_min":97.234375,"x_max":682,"ha":738,"o":"m 97 998 l 663 998 q 672 913 672 957 q 663 826 672 868 l 300 826 l 300 609 l 588 609 q 597 523 597 565 q 588 436 597 479 l 300 436 l 300 172 l 673 172 q 682 87 682 130 q 673 0 682 41 l 97 0 l 97 998 m 135 1229 q 192 1236 159 1233 q 262 1238 226 1238 q 336 1236 299 1238 q 403 1229 373 1233 l 540 1084 q 438 1076 490 1076 q 390 1077 415 1076 q 340 1084 365 1079 l 135 1229 "},"{":{"x_min":69.453125,"x_max":537.546875,"ha":607,"o":"m 200 197 q 192 275 198 241 q 170 333 186 308 q 131 378 155 358 q 69 415 106 398 l 69 451 q 131 488 106 468 q 170 533 155 508 q 192 591 186 558 q 200 669 198 625 l 204 795 q 218 923 205 868 q 263 1017 231 979 q 347 1075 294 1055 q 483 1094 401 1094 q 505 1094 494 1094 q 529 1093 516 1094 q 537 1016 537 1052 q 529 940 537 979 l 505 940 q 442 929 465 940 q 408 897 419 919 q 393 842 397 876 q 390 761 390 808 q 384 621 390 677 q 363 528 377 565 q 327 469 350 491 q 273 433 305 447 q 327 396 305 418 q 363 338 350 375 q 384 245 377 301 q 390 104 390 188 q 393 22 390 56 q 408 -32 397 -11 q 442 -64 419 -54 q 505 -75 465 -75 l 529 -75 q 537 -151 537 -115 q 529 -227 537 -188 q 505 -229 516 -229 q 483 -229 494 -229 q 347 -209 401 -229 q 263 -152 294 -190 q 218 -58 231 -113 q 204 69 205 -2 l 200 197 "},"X":{"x_min":25,"x_max":854.234375,"ha":879,"o":"m 445 518 l 601 995 q 705 1004 655 1004 q 759 1002 732 1004 q 813 997 786 1001 l 637 522 l 854 0 q 797 -6 822 -4 q 748 -8 773 -8 q 700 -6 725 -8 q 641 1 676 -4 l 445 518 m 244 522 l 65 997 q 120 1002 93 1001 q 173 1004 147 1004 q 277 995 223 1004 l 436 518 l 237 1 q 178 -6 202 -4 q 130 -8 154 -8 q 81 -6 105 -8 q 25 0 56 -4 l 244 522 "},"ô":{"x_min":56.953125,"x_max":747.28125,"ha":806,"o":"m 401 -16 q 249 11 313 -16 q 142 90 184 40 q 78 209 100 141 q 56 356 56 277 q 78 505 56 436 q 142 625 100 575 q 249 705 184 676 q 401 734 313 734 q 554 705 488 734 q 662 625 619 676 q 726 505 705 575 q 747 356 747 436 q 726 209 747 277 q 662 90 705 141 q 554 11 619 40 q 401 -16 488 -16 m 401 133 q 513 190 479 133 q 547 356 547 248 q 513 522 547 465 q 401 580 479 580 q 291 522 325 580 q 256 356 256 465 q 291 190 256 248 q 401 133 325 133 m 293 998 q 349 1003 317 1001 q 410 1005 381 1005 q 456 1004 428 1005 q 512 997 485 1002 l 647 826 q 562 818 615 818 q 510 820 539 818 q 458 827 482 822 l 401 916 l 346 827 q 302 820 328 822 q 251 818 276 818 q 157 826 196 818 l 293 998 "},"¼":{"x_min":91.453125,"x_max":1374.765625,"ha":1458,"o":"m 256 554 l 256 801 l 151 762 q 115 813 128 786 q 91 880 102 841 l 373 988 l 408 988 l 408 554 l 526 554 q 531 520 530 536 q 533 490 533 505 q 531 456 533 470 q 526 423 530 443 l 140 423 q 131 456 133 441 q 128 490 128 470 q 131 522 128 506 q 140 554 133 537 l 256 554 m 1006 984 q 1103 993 1053 993 q 1199 984 1146 993 l 527 2 q 434 -5 478 -5 q 335 2 387 -5 l 1006 984 m 869 128 l 1088 580 q 1156 566 1123 578 q 1217 536 1188 555 l 1074 223 l 1163 223 l 1163 322 q 1238 326 1196 326 q 1309 322 1276 326 l 1309 223 l 1369 223 q 1374 161 1374 197 q 1369 103 1374 129 l 1309 103 l 1309 1 q 1235 -3 1277 -3 q 1163 1 1191 -3 l 1163 103 l 884 103 l 869 128 "},"#":{"x_min":73.609375,"x_max":934.796875,"ha":1020,"o":"m 236 284 l 79 284 q 73 356 73 316 q 75 394 73 376 q 80 431 77 412 l 248 431 l 262 600 l 106 600 q 102 637 104 619 q 100 675 100 655 q 102 711 100 694 q 106 748 104 729 l 275 748 l 293 958 q 335 963 315 962 q 379 965 355 965 q 420 963 400 965 q 461 958 440 962 l 443 748 l 612 748 l 630 958 q 673 963 654 962 q 716 965 693 965 q 757 963 737 965 q 800 958 777 962 l 782 748 l 927 748 q 932 713 930 729 q 934 677 934 697 q 932 638 934 658 q 927 600 930 619 l 770 600 l 757 431 l 901 431 q 906 395 904 412 q 908 359 908 379 q 906 322 908 340 q 901 284 904 304 l 744 284 l 725 41 q 681 36 701 37 q 638 34 661 34 q 597 36 616 34 q 555 41 577 37 l 575 284 l 406 284 l 387 41 q 343 36 363 37 q 300 34 323 34 q 259 36 279 34 q 216 41 240 37 l 236 284 m 587 431 l 601 600 l 431 600 l 418 431 l 587 431 "},"Ê":{"x_min":97.234375,"x_max":682,"ha":738,"o":"m 97 998 l 663 998 q 672 913 672 957 q 663 826 672 868 l 300 826 l 300 609 l 588 609 q 597 523 597 565 q 588 436 597 479 l 300 436 l 300 172 l 673 172 q 682 87 682 130 q 673 0 682 41 l 97 0 l 97 998 m 247 1229 q 298 1234 267 1232 q 367 1237 328 1237 q 435 1234 405 1237 q 488 1229 466 1232 l 635 1084 q 589 1078 616 1080 q 535 1076 562 1076 q 480 1078 512 1076 q 431 1084 448 1080 l 366 1154 l 303 1084 q 281 1080 295 1082 q 252 1078 267 1079 q 222 1077 237 1077 q 194 1076 206 1076 q 143 1078 167 1076 q 99 1084 119 1080 l 247 1229 "},")":{"x_min":69.453125,"x_max":426.421875,"ha":496,"o":"m 69 -231 q 112 -149 86 -204 q 163 -12 138 -94 q 207 178 188 69 q 226 423 226 287 q 207 668 226 559 q 163 858 188 776 q 112 995 138 940 q 69 1077 86 1050 q 116 1084 88 1082 q 172 1086 144 1086 q 227 1084 201 1086 q 265 1077 252 1082 q 326 961 297 1026 q 377 816 355 897 q 413 638 400 736 q 426 423 426 540 q 413 209 426 306 q 377 30 400 111 q 326 -115 355 -50 q 265 -231 297 -180 q 227 -238 252 -236 q 172 -240 201 -240 q 116 -238 144 -240 q 69 -231 88 -236 "},"Å":{"x_min":13.890625,"x_max":868.125,"ha":883,"o":"m 331 997 q 284 1052 302 1019 q 266 1129 266 1084 q 316 1254 266 1208 q 441 1300 366 1300 q 566 1254 516 1300 q 616 1129 616 1208 q 598 1052 616 1086 q 552 997 580 1019 l 868 0 q 757 -8 811 -8 q 654 0 704 -8 l 598 200 l 268 200 l 211 0 q 115 -8 161 -8 q 13 0 63 -8 l 331 997 m 551 368 l 436 804 l 315 368 l 551 368 m 441 1044 q 508 1129 508 1044 q 491 1193 508 1170 q 441 1215 473 1215 q 392 1193 409 1215 q 375 1129 375 1170 q 392 1066 375 1088 q 441 1044 409 1044 "},"ø":{"x_min":56.953125,"x_max":747.28125,"ha":806,"o":"m 145 86 q 79 205 101 136 q 56 356 56 275 q 78 505 56 436 q 142 625 100 575 q 249 705 184 676 q 401 734 313 734 q 516 718 465 734 q 608 675 568 702 l 634 707 q 659 711 645 709 q 687 712 673 712 q 743 708 722 712 l 669 615 q 728 499 709 565 q 747 356 747 433 q 726 209 747 277 q 662 90 705 141 q 554 11 619 40 q 401 -16 488 -16 q 211 31 288 -16 l 187 1 q 161 -2 175 -1 q 134 -4 147 -4 q 103 -3 118 -4 q 79 0 88 -2 l 145 86 m 501 537 q 401 580 465 580 q 291 522 325 580 q 256 356 256 465 q 259 294 256 323 q 269 241 262 265 l 501 537 m 315 162 q 401 133 348 133 q 513 190 479 133 q 547 356 547 248 q 538 448 547 408 l 315 162 "},"â":{"x_min":52.78125,"x_max":647.28125,"ha":725,"o":"m 455 329 q 419 334 438 331 q 384 336 400 336 q 277 311 316 336 q 237 233 237 287 q 252 177 237 197 q 289 149 268 158 q 335 138 311 140 q 377 136 359 136 q 419 139 398 136 q 455 145 440 143 l 455 329 m 455 472 q 444 526 455 505 q 413 559 433 547 q 366 575 394 570 q 302 579 337 579 q 143 550 227 579 q 113 618 123 586 q 104 694 104 650 q 226 725 165 715 q 340 734 287 734 q 566 665 484 734 q 647 443 647 595 l 647 26 q 529 -2 598 11 q 372 -16 459 -16 q 242 -4 301 -16 q 140 37 183 8 q 75 112 98 66 q 52 225 52 158 q 81 336 52 291 q 154 409 109 381 q 255 447 200 436 q 366 459 311 459 q 455 455 406 459 l 455 472 m 237 998 q 293 1003 261 1001 q 354 1005 325 1005 q 400 1004 372 1005 q 456 997 429 1002 l 591 826 q 506 818 559 818 q 454 820 483 818 q 402 827 426 822 l 345 916 l 290 827 q 246 820 272 822 q 195 818 220 818 q 101 826 140 818 l 237 998 "},"}":{"x_min":69.453125,"x_max":537.546875,"ha":607,"o":"m 101 -75 q 163 -64 140 -75 q 198 -32 187 -54 q 213 22 209 -11 q 216 104 216 56 q 222 245 216 188 q 243 338 229 301 q 279 396 256 375 q 333 433 301 418 q 279 469 301 447 q 243 528 256 491 q 222 621 229 565 q 216 761 216 677 q 213 842 216 808 q 198 897 209 876 q 163 929 187 919 q 101 940 140 940 l 77 940 q 69 1016 69 979 q 77 1093 69 1052 q 101 1094 90 1094 q 123 1094 112 1094 q 259 1075 205 1094 q 343 1017 312 1055 q 387 923 375 979 q 402 795 400 868 l 406 669 q 414 591 408 625 q 436 533 420 558 q 475 488 451 508 q 537 451 500 468 l 537 415 q 475 378 500 398 q 436 333 451 358 q 414 275 420 308 q 406 197 408 241 l 402 69 q 387 -58 400 -2 q 343 -152 375 -113 q 259 -209 312 -190 q 123 -229 205 -229 q 101 -229 112 -229 q 77 -227 90 -229 q 69 -151 69 -188 q 77 -75 69 -115 l 101 -75 "},"Ä":{"x_min":13.890625,"x_max":868.125,"ha":883,"o":"m 329 998 q 384 1004 358 1002 q 443 1007 411 1007 q 497 1004 470 1007 q 555 998 523 1002 l 868 0 q 757 -8 811 -8 q 654 0 704 -8 l 598 200 l 268 200 l 211 0 q 115 -8 161 -8 q 13 0 63 -8 l 329 998 m 551 368 l 436 787 l 315 368 l 551 368 m 197 1095 q 192 1136 194 1116 q 190 1177 190 1157 q 192 1218 190 1197 q 197 1259 194 1238 q 242 1266 218 1263 q 286 1268 266 1268 q 329 1266 305 1268 q 376 1259 354 1263 q 381 1218 380 1238 q 383 1177 383 1198 q 381 1137 383 1158 q 376 1095 380 1116 q 330 1090 354 1091 q 286 1088 306 1088 q 243 1090 268 1088 q 197 1095 218 1091 m 504 1095 q 495 1177 495 1137 q 504 1259 495 1218 q 549 1266 524 1263 q 593 1268 573 1268 q 636 1266 612 1268 q 683 1259 661 1263 q 687 1218 686 1238 q 688 1177 688 1198 q 687 1137 688 1158 q 683 1095 686 1116 q 636 1090 661 1091 q 593 1088 612 1088 q 549 1090 573 1088 q 504 1095 524 1091 "},"¸":{"x_min":187.515625,"x_max":513.9375,"ha":695,"o":"m 279 33 l 377 33 l 336 -73 q 345 -71 340 -72 q 358 -70 350 -70 q 472 -104 431 -70 q 513 -191 513 -138 q 454 -298 513 -262 q 298 -334 394 -334 q 250 -333 279 -334 q 187 -322 220 -331 q 194 -272 190 -300 q 212 -225 198 -245 q 256 -234 237 -231 q 298 -237 276 -237 q 361 -227 337 -237 q 384 -194 384 -218 q 362 -161 384 -170 q 304 -152 340 -152 q 261 -155 284 -152 q 219 -165 238 -158 l 209 -155 l 279 33 "},"a":{"x_min":52.78125,"x_max":647.28125,"ha":725,"o":"m 455 329 q 419 334 438 331 q 384 336 400 336 q 277 311 316 336 q 237 233 237 287 q 252 177 237 197 q 289 149 268 158 q 335 138 311 140 q 377 136 359 136 q 419 139 398 136 q 455 145 440 143 l 455 329 m 455 472 q 444 526 455 505 q 413 559 433 547 q 366 575 394 570 q 302 579 337 579 q 143 550 227 579 q 113 618 123 586 q 104 694 104 650 q 226 725 165 715 q 340 734 287 734 q 566 665 484 734 q 647 443 647 595 l 647 26 q 529 -2 598 11 q 372 -16 459 -16 q 242 -4 301 -16 q 140 37 183 8 q 75 112 98 66 q 52 225 52 158 q 81 336 52 291 q 154 409 109 381 q 255 447 200 436 q 366 459 311 459 q 455 455 406 459 l 455 472 "},"=":{"x_min":116.671875,"x_max":718.109375,"ha":833,"o":"m 709 425 q 718 341 718 383 q 709 256 718 298 l 125 256 q 116 340 116 298 q 125 425 116 383 l 709 425 m 709 710 q 718 626 718 668 q 709 541 718 583 l 125 541 q 116 625 116 583 q 125 710 116 668 l 709 710 "},"N":{"x_min":97.234375,"x_max":830.625,"ha":928,"o":"m 97 998 q 179 1007 140 1007 q 265 998 220 1007 l 651 362 l 651 998 q 747 1007 701 1007 q 830 998 790 1007 l 830 0 q 750 -8 786 -8 q 665 0 711 -8 l 276 634 l 276 0 q 186 -8 231 -8 q 97 0 140 -8 l 97 998 "},"ú":{"x_min":84.734375,"x_max":712.5625,"ha":795,"o":"m 84 718 q 183 726 134 726 q 281 718 231 726 l 281 337 q 291 243 281 280 q 318 185 300 206 q 365 154 337 163 q 430 145 393 145 q 516 155 481 145 l 516 718 q 613 726 566 726 q 712 718 662 726 l 712 27 q 595 -2 668 12 q 443 -16 522 -16 q 306 -5 372 -16 q 192 41 241 5 q 113 147 143 77 q 84 331 84 216 l 84 718 m 427 998 q 552 1007 483 1007 q 614 1004 588 1007 q 667 998 640 1002 l 458 827 q 415 822 440 825 q 362 819 390 819 q 272 827 317 819 l 427 998 "},"2":{"x_min":77.78125,"x_max":730.609375,"ha":833,"o":"m 77 20 l 280 286 q 365 395 327 348 q 428 482 402 443 q 467 556 454 522 q 480 625 480 590 q 439 715 480 683 q 325 747 398 747 q 271 744 294 747 q 227 736 248 741 q 186 722 206 730 q 144 705 166 715 q 113 784 126 744 q 97 866 100 825 q 159 889 130 879 q 216 906 187 900 q 277 916 245 912 q 348 919 308 919 q 484 903 422 919 q 592 854 547 887 q 662 770 637 820 q 687 651 687 719 q 673 555 687 601 q 634 464 659 509 q 575 371 609 419 q 500 268 541 323 l 426 169 l 722 169 q 730 87 730 127 q 722 0 730 41 l 87 0 l 77 20 "},"ü":{"x_min":84.734375,"x_max":712.5625,"ha":795,"o":"m 84 718 q 183 726 134 726 q 281 718 231 726 l 281 337 q 291 243 281 280 q 318 185 300 206 q 365 154 337 163 q 430 145 393 145 q 516 155 481 145 l 516 718 q 613 726 566 726 q 712 718 662 726 l 712 27 q 595 -2 668 12 q 443 -16 522 -16 q 306 -5 372 -16 q 192 41 241 5 q 113 147 143 77 q 84 331 84 216 l 84 718 m 165 823 q 160 864 162 844 q 158 905 158 884 q 160 945 158 925 q 165 987 162 966 q 210 993 186 991 q 254 995 234 995 q 297 993 273 995 q 344 987 322 991 q 349 946 348 966 q 351 905 351 926 q 349 865 351 886 q 344 823 348 844 q 298 818 322 819 q 254 816 274 816 q 211 818 236 816 q 165 823 186 819 m 472 823 q 463 905 463 865 q 472 987 463 945 q 517 993 492 991 q 561 995 541 995 q 604 993 580 995 q 651 987 629 991 q 655 946 654 966 q 656 905 656 926 q 655 865 656 886 q 651 823 654 844 q 604 818 629 819 q 561 816 580 816 q 517 818 541 816 q 472 823 492 819 "},"¯":{"x_min":155.5625,"x_max":540.328125,"ha":695,"o":"m 531 982 q 540 912 540 945 q 531 841 540 876 l 163 841 q 155 911 155 876 q 163 982 155 945 l 531 982 "},"Z":{"x_min":52.78125,"x_max":769.5,"ha":806,"o":"m 52 13 l 472 826 l 88 826 q 80 911 80 868 q 88 998 80 957 l 758 998 l 769 982 l 354 172 l 748 172 q 757 87 757 130 q 748 0 757 41 l 62 0 l 52 13 "},"u":{"x_min":84.734375,"x_max":712.5625,"ha":795,"o":"m 84 718 q 183 726 134 726 q 281 718 231 726 l 281 337 q 291 243 281 280 q 318 185 300 206 q 365 154 337 163 q 430 145 393 145 q 516 155 481 145 l 516 718 q 613 726 566 726 q 712 718 662 726 l 712 27 q 595 -2 668 12 q 443 -16 522 -16 q 306 -5 372 -16 q 192 41 241 5 q 113 147 143 77 q 84 331 84 216 l 84 718 "},"Ó":{"x_min":70.84375,"x_max":937.578125,"ha":1008,"o":"m 504 -16 q 309 22 391 -16 q 175 129 227 61 q 96 292 122 198 q 70 497 70 386 q 96 703 70 608 q 175 868 122 798 q 309 976 227 937 q 504 1015 391 1015 q 698 976 616 1015 q 833 868 780 937 q 911 703 886 798 q 937 497 937 608 q 911 292 937 386 q 833 129 886 198 q 698 22 780 61 q 504 -16 616 -16 m 504 152 q 719 497 719 152 q 667 755 719 669 q 505 841 615 841 q 287 497 287 841 q 504 152 287 152 m 530 1229 q 598 1236 561 1233 q 672 1238 635 1238 q 742 1236 708 1238 q 799 1229 775 1233 l 594 1084 q 544 1077 569 1079 q 496 1076 519 1076 q 394 1084 444 1076 l 530 1229 "},"k":{"x_min":84.734375,"x_max":729.21875,"ha":743,"o":"m 84 1015 q 181 1023 131 1023 q 280 1015 231 1023 l 280 0 q 181 -8 231 -8 q 84 0 131 -8 l 84 1015 m 308 376 l 486 718 q 595 726 540 726 q 698 718 648 726 l 515 386 l 729 0 q 619 -8 672 -8 q 516 0 570 -8 l 308 376 "},"Ù":{"x_min":91.671875,"x_max":841.734375,"ha":932,"o":"m 91 998 q 143 1004 118 1002 q 194 1005 168 1005 q 243 1004 218 1005 q 294 998 268 1002 l 294 480 q 300 335 294 395 q 325 235 306 275 q 378 177 344 195 q 466 158 412 158 q 554 177 520 158 q 606 235 587 195 q 631 335 625 275 q 637 480 637 395 l 637 998 q 690 1004 665 1002 q 738 1005 715 1005 q 789 1004 763 1005 q 841 998 815 1002 l 841 437 q 825 252 841 336 q 765 108 808 168 q 650 15 722 48 q 466 -16 577 -16 q 283 15 355 -16 q 168 108 211 48 q 108 252 125 168 q 91 437 91 336 l 91 998 m 185 1229 q 242 1236 209 1233 q 312 1238 276 1238 q 386 1236 349 1238 q 453 1229 423 1233 l 590 1084 q 488 1076 540 1076 q 440 1077 465 1076 q 390 1084 415 1079 l 185 1229 "},"€":{"x_min":38.890625,"x_max":837.5625,"ha":833,"o":"m 155 426 q 154 454 154 440 q 154 484 154 469 q 154 511 154 498 q 155 538 154 525 l 45 538 q 38 595 38 559 q 45 655 38 632 l 169 655 q 218 795 186 732 q 300 904 250 859 q 420 973 351 948 q 579 998 488 998 q 702 990 645 998 q 823 955 758 982 q 807 874 820 913 q 776 794 793 834 q 690 818 727 811 q 601 825 652 825 q 457 782 506 825 q 388 655 408 740 l 676 655 q 680 631 679 645 q 682 601 682 616 q 680 566 682 583 q 676 538 679 550 l 373 538 l 373 484 q 373 454 373 469 q 375 426 373 440 l 676 426 q 680 402 679 416 q 682 372 682 387 q 680 337 682 354 q 676 309 679 320 l 390 309 q 461 194 411 230 q 612 158 512 158 q 702 165 663 158 q 790 188 741 172 q 820 109 808 150 q 837 26 832 68 q 707 -8 765 0 q 583 -16 650 -16 q 420 6 490 -16 q 300 71 350 29 q 218 174 250 113 q 170 309 186 234 l 45 309 q 38 366 38 330 q 45 426 38 402 l 155 426 "},"¢":{"x_min":145.84375,"x_max":707,"ha":833,"o":"m 438 -12 q 309 28 365 -2 q 218 109 254 59 q 163 221 181 158 q 145 358 145 284 q 164 494 145 430 q 219 607 183 558 q 310 689 255 657 q 438 730 365 722 l 438 882 q 498 890 468 890 q 559 882 527 890 l 559 732 q 626 721 594 729 q 698 698 658 713 q 689 620 698 655 q 663 551 680 584 q 591 570 622 565 q 519 575 559 575 q 389 518 433 575 q 345 358 345 462 q 393 194 345 245 q 520 143 440 143 q 559 143 541 143 q 593 147 576 144 q 627 155 609 150 q 668 169 644 161 q 695 104 684 141 q 707 18 707 68 q 631 -4 666 2 q 559 -15 595 -12 l 559 -163 q 500 -172 530 -172 q 438 -163 469 -172 l 438 -12 "},"ß":{"x_min":91.671875,"x_max":795.890625,"ha":839,"o":"m 91 666 q 168 935 91 838 q 413 1032 244 1032 q 552 1009 497 1032 q 642 950 608 986 q 691 869 676 913 q 705 782 705 825 q 686 684 705 725 q 643 613 666 644 q 601 556 620 583 q 581 500 581 530 q 597 455 581 472 q 637 424 613 438 q 688 393 661 409 q 740 352 716 377 q 779 290 763 327 q 795 195 795 252 q 783 123 795 161 q 740 54 770 86 q 659 3 709 23 q 533 -16 608 -16 q 441 -9 481 -16 q 358 13 400 -2 q 371 89 361 51 q 398 163 381 127 q 459 141 430 147 q 511 136 487 136 q 577 156 554 136 q 600 215 600 177 q 584 259 600 241 q 544 290 568 276 q 493 320 520 305 q 443 356 466 334 q 403 407 419 377 q 387 483 387 437 q 405 563 387 531 q 445 625 423 595 q 486 688 468 654 q 504 773 504 722 q 499 811 504 793 q 482 843 494 829 q 451 865 470 857 q 402 873 431 873 q 313 825 341 873 q 284 666 284 776 l 284 0 q 190 -8 234 -8 q 91 0 141 -8 l 91 666 "},"é":{"x_min":59.734375,"x_max":722.28125,"ha":781,"o":"m 254 298 q 312 177 259 215 q 451 140 365 140 q 547 149 498 140 q 641 175 597 158 q 668 108 657 147 q 680 25 679 69 q 436 -16 572 -16 q 264 11 336 -16 q 147 88 193 38 q 81 205 102 137 q 59 354 59 273 q 81 502 59 433 q 147 623 104 572 q 256 704 191 675 q 406 734 320 734 q 540 708 481 734 q 639 636 598 682 q 701 527 680 590 q 722 391 722 463 q 720 339 722 365 q 715 298 718 313 l 254 298 m 536 436 q 499 543 533 502 q 404 584 465 584 q 298 545 334 584 q 255 436 262 506 l 536 436 m 420 998 q 545 1007 476 1007 q 607 1004 581 1007 q 660 998 633 1002 l 451 827 q 408 822 433 825 q 355 819 383 819 q 265 827 310 819 l 420 998 "},"s":{"x_min":55.5625,"x_max":590.328125,"ha":639,"o":"m 236 312 q 114 378 158 334 q 70 509 70 422 q 146 675 70 615 q 352 734 222 734 q 459 725 406 734 q 566 695 512 715 q 552 620 563 659 q 526 552 541 581 q 452 577 493 566 q 368 587 412 587 q 294 572 320 587 q 268 526 268 558 q 286 483 268 495 q 340 459 305 470 l 419 436 q 489 409 458 425 q 543 369 520 393 q 577 311 565 345 q 590 226 590 276 q 568 130 590 175 q 506 53 547 86 q 406 2 465 20 q 275 -16 348 -16 q 213 -14 241 -16 q 160 -7 186 -12 q 109 4 134 -2 q 55 22 84 11 q 68 97 58 59 q 95 172 79 136 q 182 145 141 154 q 268 136 223 136 q 310 139 287 136 q 352 152 333 143 q 385 175 372 161 q 398 213 398 190 q 378 261 398 247 q 322 287 358 276 l 236 312 "},"B":{"x_min":100.015625,"x_max":786.171875,"ha":840,"o":"m 100 1000 q 202 1011 144 1007 q 348 1015 261 1015 q 493 1002 425 1015 q 611 960 561 990 q 691 880 662 930 q 720 755 720 830 q 707 672 720 711 q 672 606 694 634 q 622 559 650 577 q 565 536 594 540 q 636 516 597 531 q 708 471 675 501 q 763 394 741 441 q 786 280 786 347 q 752 132 786 190 q 660 41 718 75 q 527 -4 602 8 q 368 -16 451 -16 q 241 -13 304 -16 q 100 0 179 -9 l 100 1000 m 301 152 q 346 148 320 150 q 393 147 372 147 q 454 152 422 147 q 513 174 486 158 q 559 218 541 190 q 577 293 577 247 q 563 364 577 336 q 524 410 550 393 q 463 434 498 427 q 384 441 427 441 l 301 441 l 301 152 m 362 594 q 427 600 397 594 q 479 622 456 607 q 513 666 501 638 q 526 734 526 693 q 511 800 526 775 q 474 841 497 826 q 422 860 451 855 q 366 865 394 865 q 301 861 327 865 l 301 594 l 362 594 "},"?":{"x_min":59.734375,"x_max":643.109375,"ha":685,"o":"m 243 552 q 309 568 275 558 q 373 597 344 579 q 421 642 402 615 q 440 709 440 669 q 397 800 440 769 q 283 832 354 832 q 231 829 254 832 q 188 822 208 827 q 149 811 169 818 q 106 797 129 805 q 75 872 87 833 q 59 952 62 911 q 126 974 95 965 q 186 988 156 983 q 244 996 215 994 q 306 998 273 998 q 558 922 473 998 q 643 715 643 847 q 618 602 643 650 q 557 522 593 555 q 484 470 522 490 q 423 440 447 450 l 423 313 q 330 305 375 305 q 243 313 284 305 l 243 552 m 229 0 q 220 101 220 51 q 229 204 220 151 q 330 212 280 212 q 433 204 380 212 q 441 102 441 151 q 433 0 441 51 q 331 -8 380 -8 q 229 0 280 -8 "},"H":{"x_min":97.234375,"x_max":840.34375,"ha":938,"o":"m 97 998 q 198 1007 148 1007 q 301 998 248 1007 l 301 607 l 636 607 l 636 998 q 737 1007 687 1007 q 840 998 787 1007 l 840 0 q 738 -8 787 -8 q 636 0 687 -8 l 636 431 l 301 431 l 301 0 q 200 -8 248 -8 q 97 0 148 -8 l 97 998 "},"î":{"x_min":-33.609375,"x_max":456.71875,"ha":426,"o":"m 136 568 l 43 568 q 36 606 38 586 q 34 644 34 626 q 43 718 34 682 l 329 718 l 329 0 q 231 -8 279 -8 q 136 0 186 -8 l 136 568 m 102 998 q 158 1003 126 1001 q 219 1005 190 1005 q 265 1004 237 1005 q 321 997 294 1002 l 456 826 q 371 818 424 818 q 319 820 348 818 q 267 827 291 822 l 210 916 l 155 827 q 111 820 137 822 q 60 818 85 818 q -33 826 5 818 l 102 998 "},"c":{"x_min":56.953125,"x_max":618.109375,"ha":660,"o":"m 579 169 q 606 104 595 141 q 618 18 618 68 q 513 -10 562 -4 q 412 -16 465 -16 q 255 11 322 -16 q 145 90 188 40 q 79 209 101 140 q 56 358 56 277 q 78 505 56 437 q 143 625 100 573 q 252 705 187 676 q 404 734 318 734 q 460 733 434 734 q 509 727 486 732 q 556 716 533 723 q 609 698 580 709 q 601 627 609 666 q 575 551 593 587 q 502 570 533 565 q 430 575 470 575 q 300 518 344 575 q 256 358 256 462 q 304 194 256 245 q 431 143 351 143 q 470 143 452 143 q 504 147 487 144 q 538 155 520 150 q 579 169 555 161 "},"¶":{"x_min":69.453125,"x_max":738.953125,"ha":832,"o":"m 398 434 l 383 434 q 267 449 323 434 q 167 495 211 463 q 96 579 123 527 q 69 705 69 630 q 99 845 69 787 q 187 938 129 902 q 330 991 245 975 q 523 1007 415 1007 l 523 -8 q 445 -6 477 -8 q 398 0 413 -4 l 398 434 m 613 1007 q 691 1004 658 1007 q 738 998 723 1002 l 738 0 q 691 -6 723 -4 q 613 -8 658 -8 l 613 1007 "},"¥":{"x_min":18.0625,"x_max":816.734375,"ha":833,"o":"m 316 216 l 86 216 q 81 241 83 226 q 80 275 80 256 q 81 307 80 291 q 86 334 83 323 l 316 334 l 316 431 l 86 431 q 81 456 83 441 q 80 490 80 472 q 81 522 80 506 q 86 550 83 538 l 251 550 l 18 982 q 134 990 76 990 q 240 982 187 990 l 423 594 l 604 982 q 709 990 655 990 q 816 982 759 990 l 583 550 l 772 550 q 776 494 776 530 q 775 459 776 476 q 772 431 775 443 l 518 431 l 518 334 l 772 334 q 776 279 776 315 q 775 244 776 261 q 772 216 775 227 l 518 216 l 518 -1 q 466 -6 490 -5 q 416 -8 441 -8 q 368 -6 393 -8 q 316 -1 343 -5 l 316 216 "},"(":{"x_min":69.453125,"x_max":426.421875,"ha":496,"o":"m 230 -231 q 169 -115 198 -180 q 118 30 140 -50 q 82 209 95 111 q 69 423 69 306 q 82 638 69 540 q 118 816 95 736 q 169 961 140 897 q 230 1077 198 1026 q 268 1084 243 1082 q 323 1086 294 1086 q 379 1084 351 1086 q 426 1077 406 1082 q 383 995 409 1050 q 331 858 356 940 q 288 668 306 776 q 269 423 269 559 q 288 178 269 287 q 331 -12 306 69 q 383 -149 356 -94 q 426 -231 409 -204 q 379 -238 406 -236 q 323 -240 351 -240 q 268 -238 294 -240 q 230 -231 243 -236 "},"U":{"x_min":91.671875,"x_max":841.734375,"ha":932,"o":"m 91 998 q 143 1004 118 1002 q 194 1005 168 1005 q 243 1004 218 1005 q 294 998 268 1002 l 294 480 q 300 335 294 395 q 325 235 306 275 q 378 177 344 195 q 466 158 412 158 q 554 177 520 158 q 606 235 587 195 q 631 335 625 275 q 637 480 637 395 l 637 998 q 690 1004 665 1002 q 738 1005 715 1005 q 789 1004 763 1005 q 841 998 815 1002 l 841 437 q 825 252 841 336 q 765 108 808 168 q 650 15 722 48 q 466 -16 577 -16 q 283 15 355 -16 q 168 108 211 48 q 108 252 125 168 q 91 437 91 336 l 91 998 "},"◊":{"x_min":41.671875,"x_max":757,"ha":799,"o":"m 555 500 l 402 830 l 251 500 l 404 169 l 555 500 m 41 500 l 300 1000 q 355 1005 326 1004 q 404 1007 384 1007 q 451 1005 425 1007 q 501 998 477 1004 l 757 500 l 498 0 q 443 -5 472 -4 q 394 -6 413 -6 q 347 -5 373 -6 q 297 1 320 -4 l 41 500 "},"Ñ":{"x_min":97.234375,"x_max":830.625,"ha":929,"o":"m 97 998 q 179 1007 140 1007 q 265 998 220 1007 l 651 362 l 651 998 q 747 1007 701 1007 q 830 998 790 1007 l 830 0 q 750 -8 786 -8 q 665 0 711 -8 l 276 634 l 276 0 q 186 -8 231 -8 q 97 0 140 -8 l 97 998 m 214 1198 q 278 1252 237 1229 q 372 1276 319 1276 q 424 1267 399 1276 q 475 1248 450 1258 q 526 1228 500 1237 q 579 1219 551 1219 q 626 1228 604 1219 q 678 1266 647 1237 q 740 1161 724 1218 q 676 1108 717 1130 q 587 1086 636 1086 q 531 1095 558 1086 q 476 1114 503 1104 q 424 1134 450 1125 q 374 1143 399 1143 q 326 1133 346 1143 q 275 1095 306 1123 q 237 1145 254 1120 q 214 1198 221 1169 "},"F":{"x_min":97.234375,"x_max":672.28125,"ha":704,"o":"m 97 998 l 663 998 q 672 913 672 957 q 663 826 672 868 l 300 826 l 300 591 l 588 591 q 597 505 597 547 q 588 418 597 461 l 300 418 l 300 0 q 200 -8 247 -8 q 97 0 148 -8 l 97 998 "},"­":{"x_min":72.234375,"x_max":443.09375,"ha":515,"o":"m 434 466 q 443 381 443 425 q 434 295 443 337 l 80 295 q 72 380 72 337 q 80 466 72 425 l 434 466 "},":":{"x_min":90.28125,"x_max":311.140625,"ha":401,"o":"m 98 0 q 90 101 90 51 q 98 204 90 151 q 200 212 150 212 q 302 204 250 212 q 311 102 311 151 q 302 0 311 51 q 201 -8 250 -8 q 98 0 150 -8 m 98 514 q 90 615 90 565 q 98 718 90 665 q 200 726 150 726 q 302 718 250 726 q 311 616 311 665 q 302 514 311 565 q 201 505 250 505 q 98 514 150 505 "},"Û":{"x_min":91.671875,"x_max":841.734375,"ha":932,"o":"m 91 998 q 143 1004 118 1002 q 194 1005 168 1005 q 243 1004 218 1005 q 294 998 268 1002 l 294 480 q 300 335 294 395 q 325 235 306 275 q 378 177 344 195 q 466 158 412 158 q 554 177 520 158 q 606 235 587 195 q 631 335 625 275 q 637 480 637 395 l 637 998 q 690 1004 665 1002 q 738 1005 715 1005 q 789 1004 763 1005 q 841 998 815 1002 l 841 437 q 825 252 841 336 q 765 108 808 168 q 650 15 722 48 q 466 -16 577 -16 q 283 15 355 -16 q 168 108 211 48 q 108 252 125 168 q 91 437 91 336 l 91 998 m 346 1229 q 397 1234 366 1232 q 466 1237 427 1237 q 534 1234 504 1237 q 587 1229 565 1232 l 734 1084 q 688 1078 715 1080 q 634 1076 661 1076 q 579 1078 611 1076 q 530 1084 547 1080 l 465 1154 l 402 1084 q 380 1080 394 1082 q 351 1078 366 1079 q 321 1077 336 1077 q 293 1076 305 1076 q 242 1078 266 1076 q 198 1084 218 1080 l 346 1229 "},"*":{"x_min":50,"x_max":650.046875,"ha":672,"o":"m 297 998 q 347 1002 322 1002 q 402 998 375 1002 l 419 808 q 382 804 400 805 q 347 802 365 802 q 281 808 308 802 l 297 998 m 50 738 q 62 791 52 765 q 83 838 72 816 l 269 795 q 226 665 256 722 l 50 738 m 361 563 q 472 644 415 615 l 572 481 q 531 446 552 462 q 486 419 509 430 l 361 563 m 618 840 q 638 790 630 816 q 650 740 645 763 l 473 665 q 446 732 456 698 q 431 795 436 765 l 618 840 m 230 643 q 341 562 287 613 l 216 418 q 171 445 193 429 q 130 480 150 461 l 230 643 "},"°":{"x_min":52.78125,"x_max":472.265625,"ha":524,"o":"m 52 798 q 69 880 52 841 q 113 947 86 919 q 179 991 141 975 q 261 1008 218 1008 q 343 991 304 1008 q 410 947 381 975 q 455 880 438 919 q 472 798 472 841 q 455 718 472 755 q 410 652 438 680 q 343 607 381 623 q 261 591 304 591 q 179 607 218 591 q 113 652 141 623 q 69 718 86 680 q 52 798 52 755 m 261 708 q 323 733 297 708 q 350 798 350 758 q 323 865 350 838 q 261 891 297 891 q 200 865 225 891 q 175 798 175 838 q 200 733 175 758 q 261 708 225 708 "},"V":{"x_min":13.890625,"x_max":882.015625,"ha":896,"o":"m 13 998 q 68 1004 37 1001 q 122 1007 98 1007 q 233 998 175 1007 l 451 211 l 672 998 q 725 1004 700 1002 q 777 1005 751 1005 q 828 1004 802 1005 q 882 998 854 1002 l 559 0 q 503 -6 530 -4 q 445 -8 476 -8 q 391 -6 418 -8 q 333 0 365 -4 l 13 998 "},"å":{"x_min":52.78125,"x_max":647.28125,"ha":725,"o":"m 455 329 q 419 334 438 331 q 384 336 400 336 q 277 311 316 336 q 237 233 237 287 q 252 177 237 197 q 289 149 268 158 q 335 138 311 140 q 377 136 359 136 q 419 139 398 136 q 455 145 440 143 l 455 329 m 455 472 q 444 526 455 505 q 413 559 433 547 q 366 575 394 570 q 302 579 337 579 q 143 550 227 579 q 113 618 123 586 q 104 694 104 650 q 226 725 165 715 q 340 734 287 734 q 566 665 484 734 q 647 443 647 595 l 647 26 q 529 -2 598 11 q 372 -16 459 -16 q 242 -4 301 -16 q 140 37 183 8 q 75 112 98 66 q 52 225 52 158 q 81 336 52 291 q 154 409 109 381 q 255 447 200 436 q 366 459 311 459 q 455 455 406 459 l 455 472 m 209 965 q 256 1082 209 1040 q 372 1123 302 1123 q 488 1082 441 1123 q 534 965 534 1040 q 488 848 534 890 q 372 807 441 807 q 256 848 302 807 q 209 965 209 890 m 372 888 q 418 909 399 888 q 437 965 437 929 q 418 1021 437 1001 q 372 1041 399 1041 q 325 1021 344 1041 q 306 965 306 1001 q 325 909 306 929 q 372 888 344 888 "}," ":{"x_min":0,"x_max":0,"ha":0},"0":{"x_min":58.34375,"x_max":783.390625,"ha":833,"o":"m 418 -16 q 256 18 325 -16 q 145 115 188 52 q 79 263 101 177 q 58 450 58 348 q 80 637 58 551 q 147 786 102 723 q 260 884 191 848 q 423 919 329 919 q 584 884 516 919 q 697 786 652 848 q 762 637 741 723 q 783 450 783 551 q 761 263 783 348 q 694 115 738 177 q 580 18 650 52 q 418 -16 511 -16 m 420 150 q 531 222 491 150 q 570 450 570 295 q 531 677 570 604 q 420 750 491 750 q 307 677 348 750 q 266 450 266 604 q 308 222 266 295 q 420 150 350 150 "},"¾":{"x_min":128.84375,"x_max":1380.765625,"ha":1458,"o":"m 233 691 l 338 857 l 166 857 q 161 888 163 873 q 159 919 159 904 q 166 982 159 950 l 546 982 l 562 952 l 433 766 q 489 747 463 762 q 533 712 514 733 q 562 665 552 691 q 571 611 571 638 q 551 523 571 561 q 495 460 531 486 q 410 421 459 434 q 305 408 362 408 q 258 409 278 408 q 217 413 237 411 q 176 421 196 416 q 128 434 155 426 q 141 501 130 468 q 167 555 152 534 q 237 536 205 544 q 302 529 270 529 q 382 548 348 529 q 416 609 416 568 q 387 656 416 641 q 321 670 358 670 q 295 670 310 670 q 259 662 280 669 l 233 691 m 875 137 l 1094 589 q 1162 575 1129 587 q 1223 545 1194 564 l 1080 232 l 1169 232 l 1169 331 q 1244 335 1202 335 q 1315 331 1282 335 l 1315 232 l 1375 232 q 1380 170 1380 206 q 1375 112 1380 138 l 1315 112 l 1315 10 q 1241 5 1283 5 q 1169 10 1197 5 l 1169 112 l 890 112 l 875 137 m 1009 984 q 1106 993 1056 993 q 1202 984 1149 993 l 530 2 q 437 -5 481 -5 q 338 2 390 -5 l 1009 984 "},"@":{"x_min":59.734375,"x_max":1336.21875,"ha":1396,"o":"m 912 220 q 958 209 926 209 q 1050 240 1009 209 q 1117 319 1090 270 q 1158 427 1144 368 q 1172 543 1172 486 q 1075 787 1172 702 q 801 872 977 872 q 559 825 665 872 q 379 700 452 779 q 268 520 306 622 q 230 308 230 418 q 260 137 230 208 q 341 21 290 66 q 461 -44 393 -23 q 608 -65 530 -65 q 741 -56 680 -65 q 852 -27 802 -47 q 876 -90 865 -58 q 895 -155 887 -123 q 836 -178 870 -168 q 761 -195 801 -188 q 675 -204 720 -201 q 586 -208 630 -208 q 383 -177 479 -208 q 215 -84 287 -147 q 101 75 143 -20 q 59 302 59 170 q 104 552 59 426 q 243 781 150 679 q 479 947 336 883 q 820 1012 623 1012 q 1020 984 926 1012 q 1184 897 1113 955 q 1295 750 1254 838 q 1336 543 1336 662 q 1307 372 1336 456 q 1227 222 1279 288 q 1103 113 1176 155 q 941 70 1030 72 q 787 123 840 70 q 700 86 745 102 q 584 70 654 70 q 501 84 540 70 q 433 125 462 97 q 386 197 404 154 q 369 300 369 240 q 400 472 369 394 q 486 608 431 551 q 611 697 540 665 q 765 729 683 729 q 888 720 827 729 q 1001 691 948 711 l 912 220 m 804 573 q 775 579 788 577 q 747 580 762 580 q 666 559 701 580 q 605 504 630 538 q 567 425 580 470 q 554 331 554 380 q 581 241 554 269 q 652 213 608 213 q 700 218 680 213 q 744 229 720 222 l 804 573 "},"ö":{"x_min":56.953125,"x_max":747.28125,"ha":806,"o":"m 401 -16 q 249 11 313 -16 q 142 90 184 40 q 78 209 100 141 q 56 356 56 277 q 78 505 56 436 q 142 625 100 575 q 249 705 184 676 q 401 734 313 734 q 554 705 488 734 q 662 625 619 676 q 726 505 705 575 q 747 356 747 436 q 726 209 747 277 q 662 90 705 141 q 554 11 619 40 q 401 -16 488 -16 m 401 133 q 513 190 479 133 q 547 356 547 248 q 513 522 547 465 q 401 580 479 580 q 291 522 325 580 q 256 356 256 465 q 291 190 256 248 q 401 133 325 133 m 158 823 q 153 864 155 844 q 151 905 151 884 q 153 945 151 925 q 158 987 155 966 q 203 993 179 991 q 247 995 227 995 q 290 993 266 995 q 337 987 315 991 q 342 946 341 966 q 344 905 344 926 q 342 865 344 886 q 337 823 341 844 q 291 818 315 819 q 247 816 267 816 q 204 818 229 816 q 158 823 179 819 m 465 823 q 456 905 456 865 q 465 987 456 945 q 510 993 485 991 q 554 995 534 995 q 597 993 573 995 q 644 987 622 991 q 648 946 647 966 q 649 905 649 926 q 648 865 649 886 q 644 823 647 844 q 597 818 622 819 q 554 816 573 816 q 510 818 534 816 q 465 823 485 819 "},"i":{"x_min":34.71875,"x_max":329.1875,"ha":426,"o":"m 136 568 l 43 568 q 36 606 38 586 q 34 644 34 626 q 43 718 34 682 l 329 718 l 329 0 q 231 -8 279 -8 q 136 0 186 -8 l 136 568 m 106 838 q 98 932 98 886 q 106 1025 98 976 q 157 1031 130 1029 q 206 1033 184 1033 q 258 1031 230 1033 q 309 1025 286 1029 q 315 978 313 1001 q 316 932 316 955 q 315 886 316 909 q 309 838 313 862 q 259 833 286 834 q 208 832 231 832 q 158 833 186 832 q 106 838 130 834 "},"Õ":{"x_min":70.84375,"x_max":937.578125,"ha":1008,"o":"m 504 -16 q 309 22 391 -16 q 175 129 227 61 q 96 292 122 198 q 70 497 70 386 q 96 703 70 608 q 175 868 122 798 q 309 976 227 937 q 504 1015 391 1015 q 698 976 616 1015 q 833 868 780 937 q 911 703 886 798 q 937 497 937 608 q 911 292 937 386 q 833 129 886 198 q 698 22 780 61 q 504 -16 616 -16 m 504 152 q 719 497 719 152 q 667 755 719 669 q 505 841 615 841 q 287 497 287 841 q 504 152 287 152 m 257 1198 q 321 1252 280 1229 q 415 1276 362 1276 q 467 1267 442 1276 q 518 1248 493 1258 q 569 1228 543 1237 q 622 1219 594 1219 q 669 1228 647 1219 q 721 1266 690 1237 q 783 1161 767 1218 q 719 1108 760 1130 q 630 1086 679 1086 q 574 1095 601 1086 q 519 1114 546 1104 q 467 1134 493 1125 q 417 1143 442 1143 q 369 1133 389 1143 q 318 1095 349 1123 q 280 1145 297 1120 q 257 1198 264 1169 "},"þ":{"x_min":93.0625,"x_max":763.953125,"ha":821,"o":"m 290 152 q 376 141 327 141 q 508 197 462 141 q 554 365 554 252 q 547 445 554 408 q 523 508 540 481 q 481 550 506 534 q 418 565 455 565 q 359 552 383 565 q 319 516 334 538 q 297 462 304 493 q 290 397 290 431 l 290 152 m 93 1015 q 143 1020 119 1019 q 191 1022 168 1022 q 239 1020 215 1022 q 290 1015 263 1019 l 290 637 q 363 705 318 676 q 479 734 409 734 q 591 712 538 734 q 682 645 643 690 q 742 531 720 600 q 763 370 763 463 q 737 209 763 280 q 661 87 711 137 q 538 10 611 37 q 375 -16 466 -16 q 328 -14 351 -16 q 290 -9 305 -12 l 290 -329 q 239 -334 263 -333 q 191 -336 215 -336 q 143 -334 168 -336 q 93 -329 119 -333 l 93 1015 "},"]":{"x_min":69.453125,"x_max":408.359375,"ha":478,"o":"m 216 -75 l 216 919 l 77 919 q 69 1000 69 961 q 71 1038 69 1020 q 77 1077 73 1057 l 408 1077 l 408 -233 l 77 -233 q 71 -194 73 -212 q 69 -155 69 -176 q 77 -75 69 -116 l 216 -75 "},"m":{"x_min":97.234375,"x_max":1138.984375,"ha":1221,"o":"m 97 718 q 136 724 116 722 q 179 726 155 726 q 220 724 202 726 q 258 718 238 722 q 265 697 262 711 q 272 670 269 684 q 277 641 275 655 q 280 618 279 627 q 309 659 291 638 q 352 697 327 680 q 409 724 377 713 q 479 734 440 734 q 694 607 647 734 q 772 696 722 658 q 901 734 823 734 q 1081 667 1023 734 q 1138 456 1138 600 l 1138 0 q 1040 -8 1088 -8 q 941 0 991 -8 l 941 405 q 922 520 941 480 q 847 561 904 561 q 800 554 823 561 q 759 528 777 547 q 728 475 740 509 q 716 387 716 441 l 716 0 q 618 -8 666 -8 q 519 0 569 -8 l 519 405 q 500 520 519 480 q 425 561 481 561 q 377 554 401 561 q 335 527 354 547 q 305 470 316 506 q 294 376 294 434 l 294 0 q 195 -8 244 -8 q 97 0 147 -8 l 97 718 "},"8":{"x_min":65.28125,"x_max":768.109375,"ha":833,"o":"m 234 529 q 145 616 180 561 q 109 743 109 672 q 133 848 109 801 q 197 929 156 895 q 295 980 238 962 q 416 998 351 998 q 538 980 481 998 q 635 929 594 962 q 700 848 676 895 q 723 743 723 801 q 687 617 723 672 q 597 529 651 562 q 659 491 627 513 q 713 435 690 468 q 752 360 737 402 q 768 263 768 318 q 738 135 768 188 q 659 47 708 81 q 546 -1 609 13 q 416 -16 483 -16 q 286 -1 350 -16 q 174 47 223 13 q 95 135 125 81 q 65 263 65 188 q 79 359 65 316 q 118 434 94 401 q 172 490 143 466 q 234 529 202 513 m 415 452 q 306 388 348 430 q 265 280 265 345 q 304 179 265 215 q 416 143 344 143 q 529 179 491 143 q 568 280 568 215 q 525 388 568 347 q 415 452 481 430 m 416 590 q 506 643 472 609 q 540 736 540 677 q 509 814 540 784 q 416 844 477 844 q 325 814 355 844 q 294 736 294 784 q 328 643 294 677 q 416 590 362 609 "},"R":{"x_min":106.953125,"x_max":834.78125,"ha":849,"o":"m 106 998 q 221 1010 168 1005 q 340 1015 275 1015 q 491 1001 416 1015 q 625 952 565 987 q 721 856 684 916 q 758 702 758 795 q 744 604 758 647 q 709 530 730 562 q 662 475 687 498 q 615 438 637 452 l 591 423 l 834 1 q 776 -4 807 -1 q 713 -6 745 -6 q 609 1 661 -6 l 348 465 l 381 481 q 429 506 401 491 q 482 545 456 522 q 526 600 508 568 q 544 677 544 633 q 494 806 544 765 q 365 847 444 847 q 309 843 334 847 l 309 0 q 259 -4 284 -2 q 211 -6 234 -6 q 161 -5 187 -6 q 106 0 134 -4 l 106 998 "},"á":{"x_min":52.78125,"x_max":647.28125,"ha":725,"o":"m 455 329 q 419 334 438 331 q 384 336 400 336 q 277 311 316 336 q 237 233 237 287 q 252 177 237 197 q 289 149 268 158 q 335 138 311 140 q 377 136 359 136 q 419 139 398 136 q 455 145 440 143 l 455 329 m 455 472 q 444 526 455 505 q 413 559 433 547 q 366 575 394 570 q 302 579 337 579 q 143 550 227 579 q 113 618 123 586 q 104 694 104 650 q 226 725 165 715 q 340 734 287 734 q 566 665 484 734 q 647 443 647 595 l 647 26 q 529 -2 598 11 q 372 -16 459 -16 q 242 -4 301 -16 q 140 37 183 8 q 75 112 98 66 q 52 225 52 158 q 81 336 52 291 q 154 409 109 381 q 255 447 200 436 q 366 459 311 459 q 455 455 406 459 l 455 472 m 352 998 q 477 1007 408 1007 q 539 1004 513 1007 q 592 998 565 1002 l 383 827 q 340 822 365 825 q 287 819 315 819 q 197 827 242 819 l 352 998 "},"×":{"x_min":143.0625,"x_max":690.328125,"ha":833,"o":"m 298 480 l 144 634 q 197 700 166 669 q 263 754 227 730 l 418 600 l 570 752 q 636 700 605 729 q 664 668 651 684 q 690 634 677 652 l 536 480 l 690 326 q 666 293 679 308 q 637 262 652 277 q 606 233 622 247 q 572 208 590 219 l 418 362 l 262 206 q 197 259 226 229 q 168 291 181 275 q 143 326 155 308 l 298 480 "},"o":{"x_min":56.953125,"x_max":747.28125,"ha":806,"o":"m 401 -16 q 249 11 313 -16 q 142 90 184 40 q 78 209 100 141 q 56 356 56 277 q 78 505 56 436 q 142 625 100 575 q 249 705 184 676 q 401 734 313 734 q 554 705 488 734 q 662 625 619 676 q 726 505 705 575 q 747 356 747 436 q 726 209 747 277 q 662 90 705 141 q 554 11 619 40 q 401 -16 488 -16 m 401 133 q 513 190 479 133 q 547 356 547 248 q 513 522 547 465 q 401 580 479 580 q 291 522 325 580 q 256 356 256 465 q 291 190 256 248 q 401 133 325 133 "},"5":{"x_min":70.84375,"x_max":730.609375,"ha":833,"o":"m 173 905 l 670 905 q 679 822 679 863 q 670 736 679 777 l 351 736 l 343 537 q 387 545 368 543 q 427 547 406 547 q 551 528 495 547 q 646 472 607 509 q 708 381 686 436 q 730 256 730 327 q 700 105 730 170 q 616 -4 670 40 q 482 -70 561 -48 q 306 -93 404 -93 q 261 -90 288 -93 q 203 -84 234 -88 q 137 -70 172 -79 q 70 -51 102 -62 q 88 33 75 -8 q 119 115 102 75 q 211 88 168 98 q 302 79 254 79 q 406 93 365 79 q 475 129 448 106 q 512 182 501 152 q 523 244 523 212 q 477 354 523 315 q 329 393 431 393 q 250 385 288 393 q 173 358 212 377 l 152 375 l 173 905 "},"õ":{"x_min":56.953125,"x_max":747.28125,"ha":806,"o":"m 401 -16 q 249 11 313 -16 q 142 90 184 40 q 78 209 100 141 q 56 356 56 277 q 78 505 56 436 q 142 625 100 575 q 249 705 184 676 q 401 734 313 734 q 554 705 488 734 q 662 625 619 676 q 726 505 705 575 q 747 356 747 436 q 726 209 747 277 q 662 90 705 141 q 554 11 619 40 q 401 -16 488 -16 m 401 133 q 513 190 479 133 q 547 356 547 248 q 513 522 547 465 q 401 580 479 580 q 291 522 325 580 q 256 356 256 465 q 291 190 256 248 q 401 133 325 133 m 149 940 q 211 992 173 970 q 301 1013 249 1013 q 351 1006 327 1013 q 399 989 376 998 q 448 973 423 980 q 499 965 473 965 q 544 972 523 965 q 594 1008 565 979 q 631 955 616 984 q 654 897 647 926 q 591 846 630 866 q 501 826 552 826 q 449 834 474 826 q 400 850 424 841 q 351 867 376 859 q 302 875 327 875 q 256 867 276 875 q 208 832 237 859 q 172 884 188 857 q 149 940 155 911 "},"7":{"x_min":87.5,"x_max":787.5625,"ha":833,"o":"m 513 736 l 95 736 q 87 819 87 777 q 95 905 87 863 l 779 905 l 787 888 l 379 -102 q 284 -73 329 -91 q 195 -23 238 -55 l 513 736 "},"K":{"x_min":97.234375,"x_max":845.90625,"ha":860,"o":"m 329 502 l 600 998 q 659 1005 632 1004 q 708 1007 686 1007 q 761 1004 732 1007 q 822 998 790 1001 l 548 516 l 845 0 q 784 -5 813 -2 q 730 -8 754 -8 q 681 -6 708 -8 q 620 0 654 -5 l 329 502 m 97 1000 q 148 1005 123 1004 q 200 1007 173 1007 q 248 1005 223 1007 q 300 1000 273 1004 l 300 -1 q 248 -6 273 -5 q 198 -8 223 -8 q 148 -6 173 -8 q 97 -1 123 -5 l 97 1000 "},",":{"x_min":47.21875,"x_max":330.578125,"ha":404,"o":"m 138 200 q 186 207 162 205 q 231 209 209 209 q 280 207 254 209 q 330 200 306 205 l 229 -155 q 181 -162 205 -161 q 136 -163 158 -163 q 92 -162 113 -163 q 47 -155 70 -161 l 138 200 "},"d":{"x_min":56.953125,"x_max":723.671875,"ha":817,"o":"m 527 1015 q 577 1020 552 1019 q 625 1022 601 1022 q 673 1020 648 1022 q 723 1015 698 1019 l 723 23 q 591 -6 658 4 q 427 -16 523 -16 q 286 3 354 -16 q 168 67 219 23 q 86 180 116 111 q 56 350 56 250 q 82 499 56 429 q 156 620 108 569 q 272 702 204 672 q 423 732 340 732 q 475 729 448 732 q 527 720 502 727 l 527 1015 m 527 569 q 482 578 500 576 q 438 580 465 580 q 359 561 393 580 q 302 511 325 543 q 270 438 280 480 q 259 350 259 395 q 273 253 259 293 q 311 190 287 213 q 369 156 336 166 q 441 145 402 145 q 484 147 465 145 q 527 156 504 150 l 527 569 "},"¨":{"x_min":97.234375,"x_max":595.875,"ha":695,"o":"m 104 823 q 99 864 101 844 q 97 905 97 884 q 99 945 97 925 q 104 987 101 966 q 149 993 125 991 q 193 995 173 995 q 236 993 212 995 q 283 987 261 991 q 288 946 287 966 q 290 905 290 926 q 288 865 290 886 q 283 823 287 844 q 237 818 261 819 q 193 816 213 816 q 150 818 175 816 q 104 823 125 819 m 411 823 q 402 905 402 865 q 411 987 402 945 q 456 993 431 991 q 500 995 480 995 q 543 993 519 995 q 590 987 568 991 q 594 946 593 966 q 595 905 595 926 q 594 865 595 886 q 590 823 593 844 q 543 818 568 819 q 500 816 519 816 q 456 818 480 816 q 411 823 431 819 "},"Ô":{"x_min":70.84375,"x_max":937.578125,"ha":1008,"o":"m 504 -16 q 309 22 391 -16 q 175 129 227 61 q 96 292 122 198 q 70 497 70 386 q 96 703 70 608 q 175 868 122 798 q 309 976 227 937 q 504 1015 391 1015 q 698 976 616 1015 q 833 868 780 937 q 911 703 886 798 q 937 497 937 608 q 911 292 937 386 q 833 129 886 198 q 698 22 780 61 q 504 -16 616 -16 m 504 152 q 719 497 719 152 q 667 755 719 669 q 505 841 615 841 q 287 497 287 841 q 504 152 287 152 m 382 1229 q 433 1234 402 1232 q 502 1237 463 1237 q 570 1234 540 1237 q 623 1229 601 1232 l 770 1084 q 724 1078 751 1080 q 670 1076 697 1076 q 615 1078 647 1076 q 566 1084 583 1080 l 501 1154 l 438 1084 q 416 1080 430 1082 q 387 1078 402 1079 q 357 1077 372 1077 q 329 1076 341 1076 q 278 1078 302 1076 q 234 1084 254 1080 l 382 1229 "},"E":{"x_min":97.234375,"x_max":682,"ha":738,"o":"m 97 998 l 663 998 q 672 913 672 957 q 663 826 672 868 l 300 826 l 300 609 l 588 609 q 597 523 597 565 q 588 436 597 479 l 300 436 l 300 172 l 673 172 q 682 87 682 130 q 673 0 682 41 l 97 0 l 97 998 "},"Y":{"x_min":13.890625,"x_max":840.34375,"ha":854,"o":"m 325 356 l 13 998 q 130 1007 72 1007 q 236 998 183 1007 l 433 545 l 627 998 q 733 1007 679 1007 q 840 998 783 1007 l 529 356 l 529 -1 q 476 -6 501 -5 q 426 -8 451 -8 q 377 -6 402 -8 q 325 -1 351 -5 l 325 356 "},"\"":{"x_min":69.453125,"x_max":526.625,"ha":596,"o":"m 69 1000 q 113 1005 93 1004 q 158 1007 134 1007 q 203 1005 181 1007 q 248 1000 225 1004 l 248 609 q 204 604 225 605 q 159 602 183 602 q 114 604 136 602 q 69 609 93 605 l 69 1000 m 347 1000 q 391 1005 371 1004 q 436 1007 412 1007 q 481 1005 459 1007 q 526 1000 503 1004 l 526 609 q 482 604 503 605 q 437 602 461 602 q 392 604 414 602 q 347 609 371 605 l 347 1000 "},"ê":{"x_min":59.734375,"x_max":722.28125,"ha":781,"o":"m 254 298 q 312 177 259 215 q 451 140 365 140 q 547 149 498 140 q 641 175 597 158 q 668 108 657 147 q 680 25 679 69 q 436 -16 572 -16 q 264 11 336 -16 q 147 88 193 38 q 81 205 102 137 q 59 354 59 273 q 81 502 59 433 q 147 623 104 572 q 256 704 191 675 q 406 734 320 734 q 540 708 481 734 q 639 636 598 682 q 701 527 680 590 q 722 391 722 463 q 720 339 722 365 q 715 298 718 313 l 254 298 m 536 436 q 499 543 533 502 q 404 584 465 584 q 298 545 334 584 q 255 436 262 506 l 536 436 m 293 998 q 349 1003 317 1001 q 410 1005 381 1005 q 456 1004 428 1005 q 512 997 485 1002 l 647 826 q 562 818 615 818 q 510 820 539 818 q 458 827 482 822 l 401 916 l 346 827 q 302 820 328 822 q 251 818 276 818 q 157 826 196 818 l 293 998 "},"Ï":{"x_min":-49.765625,"x_max":448.875,"ha":399,"o":"m 97 998 q 198 1007 148 1007 q 301 998 248 1007 l 301 0 q 200 -8 248 -8 q 97 0 148 -8 l 97 998 m -42 1095 q -47 1136 -45 1116 q -49 1177 -49 1157 q -47 1218 -49 1197 q -42 1259 -45 1238 q 2 1266 -21 1263 q 46 1268 26 1268 q 89 1266 65 1268 q 136 1259 114 1263 q 141 1218 140 1238 q 143 1177 143 1198 q 141 1137 143 1158 q 136 1095 140 1116 q 90 1090 114 1091 q 46 1088 66 1088 q 3 1090 28 1088 q -42 1095 -21 1091 m 264 1095 q 255 1177 255 1137 q 264 1259 255 1218 q 309 1266 284 1263 q 353 1268 333 1268 q 396 1266 372 1268 q 443 1259 421 1263 q 447 1218 446 1238 q 448 1177 448 1198 q 447 1137 448 1158 q 443 1095 446 1116 q 396 1090 421 1091 q 353 1088 372 1088 q 309 1090 333 1088 q 264 1095 284 1091 "},"Â":{"x_min":13.890625,"x_max":868.125,"ha":883,"o":"m 329 998 q 384 1004 358 1002 q 443 1007 411 1007 q 497 1004 470 1007 q 555 998 523 1002 l 868 0 q 757 -8 811 -8 q 654 0 704 -8 l 598 200 l 268 200 l 211 0 q 115 -8 161 -8 q 13 0 63 -8 l 329 998 m 551 368 l 436 787 l 315 368 l 551 368 m 319 1229 q 370 1234 339 1232 q 439 1237 400 1237 q 507 1234 477 1237 q 560 1229 538 1232 l 707 1084 q 661 1078 688 1080 q 607 1076 634 1076 q 552 1078 584 1076 q 503 1084 520 1080 l 438 1154 l 375 1084 q 353 1080 367 1082 q 324 1078 339 1079 q 294 1077 309 1077 q 266 1076 278 1076 q 215 1078 239 1076 q 171 1084 191 1080 l 319 1229 "},"Í":{"x_min":85.84375,"x_max":490.046875,"ha":399,"o":"m 97 998 q 198 1007 148 1007 q 301 998 248 1007 l 301 0 q 200 -8 248 -8 q 97 0 148 -8 l 97 998 m 221 1229 q 289 1236 252 1233 q 363 1238 326 1238 q 433 1236 399 1238 q 490 1229 466 1233 l 285 1084 q 235 1077 260 1079 q 187 1076 210 1076 q 85 1084 135 1076 l 221 1229 "},"´":{"x_min":150.015625,"x_max":545.875,"ha":695,"o":"m 305 998 q 430 1007 361 1007 q 492 1004 466 1007 q 545 998 518 1002 l 336 827 q 293 822 318 825 q 240 819 268 819 q 150 827 195 819 l 305 998 "},"ì":{"x_min":-70.984375,"x_max":329.1875,"ha":426,"o":"m 136 568 l 43 568 q 36 606 38 586 q 34 644 34 626 q 43 718 34 682 l 329 718 l 329 0 q 231 -8 279 -8 q 136 0 186 -8 l 136 568 m -70 998 q -17 1004 -43 1002 q 44 1007 8 1007 q 169 998 112 1007 l 324 827 q 234 819 279 819 q 181 822 206 819 q 138 827 156 825 l -70 998 "},"±":{"x_min":105.5625,"x_max":726.453125,"ha":833,"o":"m 331 168 l 331 406 l 113 406 q 105 490 105 448 q 113 575 105 533 l 331 575 l 331 820 q 415 829 373 829 q 500 820 458 829 l 500 575 l 718 575 q 726 491 726 533 q 718 406 726 448 l 500 406 l 500 168 l 708 168 q 716 84 716 126 q 708 0 716 41 l 123 0 q 115 83 115 41 q 123 168 115 126 l 331 168 "},"Ú":{"x_min":91.671875,"x_max":841.734375,"ha":932,"o":"m 91 998 q 143 1004 118 1002 q 194 1005 168 1005 q 243 1004 218 1005 q 294 998 268 1002 l 294 480 q 300 335 294 395 q 325 235 306 275 q 378 177 344 195 q 466 158 412 158 q 554 177 520 158 q 606 235 587 195 q 631 335 625 275 q 637 480 637 395 l 637 998 q 690 1004 665 1002 q 738 1005 715 1005 q 789 1004 763 1005 q 841 998 815 1002 l 841 437 q 825 252 841 336 q 765 108 808 168 q 650 15 722 48 q 466 -16 577 -16 q 283 15 355 -16 q 168 108 211 48 q 108 252 125 168 q 91 437 91 336 l 91 998 m 488 1229 q 556 1236 519 1233 q 630 1238 593 1238 q 700 1236 666 1238 q 757 1229 733 1233 l 552 1084 q 502 1077 527 1079 q 454 1076 477 1076 q 352 1084 402 1076 l 488 1229 "},"|":{"x_min":141.671875,"x_max":331.96875,"ha":474,"o":"m 141 1077 q 236 1086 188 1086 q 331 1077 283 1086 l 331 -233 q 237 -241 283 -241 q 141 -233 188 -241 l 141 1077 "},"§":{"x_min":88.890625,"x_max":708.390625,"ha":795,"o":"m 247 306 q 122 380 156 334 q 88 481 88 426 q 111 568 88 523 q 175 655 133 612 q 126 779 126 701 q 208 941 126 884 q 433 998 290 998 q 550 988 497 998 q 661 959 604 979 q 644 884 658 923 q 613 815 630 844 q 536 841 579 830 q 451 851 494 851 q 350 834 377 851 q 322 788 322 818 q 341 747 322 761 q 397 722 359 733 l 563 672 q 677 602 645 647 q 708 504 708 556 q 685 408 708 452 q 622 320 662 363 q 658 270 645 298 q 670 202 670 243 q 645 109 670 150 q 575 40 619 68 q 468 -2 530 12 q 336 -16 406 -16 q 98 22 206 -16 q 115 97 101 58 q 144 166 129 137 q 227 140 180 151 q 318 130 275 130 q 434 145 393 130 q 475 197 475 159 q 456 236 475 225 q 400 259 438 248 l 247 306 m 490 390 q 519 423 504 402 q 534 472 534 444 q 517 520 534 500 q 443 555 500 540 l 304 591 q 272 556 284 576 q 259 509 259 537 q 277 463 259 481 q 336 434 294 445 l 490 390 "},"Ý":{"x_min":13.890625,"x_max":840.34375,"ha":854,"o":"m 325 356 l 13 998 q 130 1007 72 1007 q 236 998 183 1007 l 433 545 l 627 998 q 733 1007 679 1007 q 840 998 783 1007 l 529 356 l 529 -1 q 476 -6 501 -5 q 426 -8 451 -8 q 377 -6 402 -8 q 325 -1 351 -5 l 325 356 m 445 1229 q 513 1236 476 1233 q 587 1238 550 1238 q 657 1236 623 1238 q 714 1229 690 1233 l 509 1084 q 459 1077 484 1079 q 411 1076 434 1076 q 309 1084 359 1076 l 445 1229 "},"b":{"x_min":94.453125,"x_max":762.5625,"ha":820,"o":"m 94 1015 q 191 1023 144 1023 q 290 1015 240 1023 l 290 648 q 359 710 311 686 q 470 734 408 734 q 586 712 533 734 q 679 645 640 690 q 740 531 718 600 q 762 370 762 463 q 734 209 762 280 q 654 87 707 137 q 525 10 601 37 q 352 -16 448 -16 q 288 -13 322 -16 q 219 -6 254 -11 q 152 6 184 -1 q 94 23 120 13 l 94 1015 m 290 155 q 325 148 306 150 q 363 147 344 147 q 505 200 454 147 q 556 365 556 252 q 525 517 556 465 q 416 569 493 569 q 325 532 361 569 q 290 416 290 495 l 290 155 "},"q":{"x_min":56.953125,"x_max":722.28125,"ha":815,"o":"m 525 -5 q 476 -11 501 -8 q 419 -13 451 -13 q 283 4 348 -13 q 167 65 218 23 q 86 176 116 108 q 56 344 56 244 q 84 495 56 423 q 162 619 111 566 q 288 703 213 672 q 459 734 363 734 q 599 725 537 734 q 722 702 661 716 l 722 -329 q 672 -334 697 -333 q 625 -336 648 -336 q 576 -334 601 -336 q 526 -329 551 -333 l 525 -5 m 525 565 q 481 572 493 570 q 452 573 470 573 q 310 509 358 573 q 262 344 262 445 q 275 249 262 287 q 311 188 288 211 q 367 155 334 165 q 438 145 400 145 q 481 147 462 145 q 525 156 501 150 l 525 565 "},"Ö":{"x_min":70.84375,"x_max":937.578125,"ha":1008,"o":"m 504 -16 q 309 22 391 -16 q 175 129 227 61 q 96 292 122 198 q 70 497 70 386 q 96 703 70 608 q 175 868 122 798 q 309 976 227 937 q 504 1015 391 1015 q 698 976 616 1015 q 833 868 780 937 q 911 703 886 798 q 937 497 937 608 q 911 292 937 386 q 833 129 886 198 q 698 22 780 61 q 504 -16 616 -16 m 504 152 q 719 497 719 152 q 667 755 719 669 q 505 841 615 841 q 287 497 287 841 q 504 152 287 152 m 261 1095 q 256 1136 258 1116 q 254 1177 254 1157 q 256 1218 254 1197 q 261 1259 258 1238 q 306 1266 282 1263 q 350 1268 330 1268 q 393 1266 369 1268 q 440 1259 418 1263 q 445 1218 444 1238 q 447 1177 447 1198 q 445 1137 447 1158 q 440 1095 444 1116 q 394 1090 418 1091 q 350 1088 370 1088 q 307 1090 332 1088 q 261 1095 282 1091 m 568 1095 q 559 1177 559 1137 q 568 1259 559 1218 q 613 1266 588 1263 q 657 1268 637 1268 q 700 1266 676 1268 q 747 1259 725 1263 q 751 1218 750 1238 q 752 1177 752 1198 q 751 1137 752 1158 q 747 1095 750 1116 q 700 1090 725 1091 q 657 1088 676 1088 q 613 1090 637 1088 q 568 1095 588 1091 "},"z":{"x_min":37.5,"x_max":658.390625,"ha":685,"o":"m 37 16 l 361 566 l 86 566 q 80 606 81 587 q 79 645 79 626 q 80 681 79 663 q 86 718 81 698 l 651 718 l 658 701 l 329 151 l 634 151 q 640 111 638 130 q 641 72 641 91 q 640 36 641 54 q 634 0 638 19 l 48 0 l 37 16 "},"ã":{"x_min":52.78125,"x_max":647.28125,"ha":725,"o":"m 455 329 q 419 334 438 331 q 384 336 400 336 q 277 311 316 336 q 237 233 237 287 q 252 177 237 197 q 289 149 268 158 q 335 138 311 140 q 377 136 359 136 q 419 139 398 136 q 455 145 440 143 l 455 329 m 455 472 q 444 526 455 505 q 413 559 433 547 q 366 575 394 570 q 302 579 337 579 q 143 550 227 579 q 113 618 123 586 q 104 694 104 650 q 226 725 165 715 q 340 734 287 734 q 566 665 484 734 q 647 443 647 595 l 647 26 q 529 -2 598 11 q 372 -16 459 -16 q 242 -4 301 -16 q 140 37 183 8 q 75 112 98 66 q 52 225 52 158 q 81 336 52 291 q 154 409 109 381 q 255 447 200 436 q 366 459 311 459 q 455 455 406 459 l 455 472 m 109 940 q 171 992 133 970 q 261 1013 209 1013 q 311 1006 287 1013 q 359 989 336 998 q 408 973 383 980 q 459 965 433 965 q 504 972 483 965 q 554 1008 525 979 q 591 955 576 984 q 614 897 607 926 q 551 846 590 866 q 461 826 512 826 q 409 834 434 826 q 360 850 384 841 q 311 867 336 859 q 262 875 287 875 q 216 867 236 875 q 168 832 197 859 q 132 884 148 857 q 109 940 115 911 "},"æ":{"x_min":52.78125,"x_max":1088.96875,"ha":1147,"o":"m 458 472 q 447 526 458 505 q 415 559 436 547 q 366 575 394 570 q 302 579 337 579 q 227 572 268 579 q 143 550 186 565 q 113 618 123 586 q 104 694 104 650 q 226 725 165 715 q 340 734 287 734 q 469 713 412 734 q 566 652 526 693 q 663 712 608 690 q 787 734 718 734 q 918 708 862 734 q 1013 636 975 682 q 1070 527 1051 590 q 1088 391 1088 463 q 1086 340 1088 365 q 1082 300 1084 315 l 633 300 q 689 179 633 218 q 832 140 745 140 q 921 149 879 140 q 1008 175 963 158 q 1034 108 1023 147 q 1047 25 1045 69 q 934 -6 993 4 q 816 -16 875 -16 q 686 -1 747 -16 q 580 43 625 13 q 474 0 533 15 q 338 -16 415 -16 q 227 -4 279 -16 q 136 37 175 8 q 75 112 97 66 q 52 225 52 158 q 81 336 52 291 q 154 406 109 380 q 255 444 200 433 q 366 455 311 455 q 458 451 409 455 l 458 472 m 454 319 q 418 324 437 322 q 384 326 400 326 q 277 306 316 326 q 237 233 237 287 q 252 177 237 197 q 286 149 266 158 q 329 138 306 140 q 366 136 351 136 q 439 145 409 136 q 484 161 469 154 q 464 224 470 190 q 455 297 458 258 l 454 319 m 902 436 q 871 543 900 502 q 784 584 843 584 q 678 545 715 584 q 634 436 641 506 l 902 436 "},"®":{"x_min":55.5625,"x_max":1086.203125,"ha":1142,"o":"m 384 775 q 459 785 423 782 q 540 788 495 788 q 729 742 672 788 q 786 619 786 695 q 767 535 786 572 q 725 479 748 498 l 704 462 l 826 245 q 785 241 807 243 q 740 240 763 240 q 703 241 720 240 q 669 245 686 243 l 544 488 l 566 502 q 619 545 598 522 q 640 601 640 568 q 620 653 640 633 q 559 673 601 673 q 542 672 550 673 q 520 669 534 672 l 520 244 q 455 238 493 238 q 420 240 438 238 q 384 244 402 241 l 384 775 m 570 84 q 740 116 665 84 q 867 204 815 148 q 947 335 919 259 q 975 498 975 411 q 947 661 975 586 q 867 793 919 737 q 740 880 815 848 q 570 912 665 912 q 401 880 476 912 q 274 793 326 848 q 194 661 222 737 q 166 498 166 586 q 194 335 166 411 q 274 204 222 259 q 401 116 326 148 q 570 84 476 84 m 570 -18 q 360 21 455 -18 q 197 129 265 61 q 93 293 130 198 q 55 498 55 387 q 93 703 55 608 q 197 867 130 798 q 360 975 265 936 q 570 1015 455 1015 q 781 976 686 1015 q 943 868 876 937 q 1048 704 1011 798 q 1086 498 1086 609 q 1048 293 1086 387 q 943 129 1011 198 q 781 21 876 61 q 570 -18 686 -18 "},"É":{"x_min":97.234375,"x_max":682,"ha":738,"o":"m 97 998 l 663 998 q 672 913 672 957 q 663 826 672 868 l 300 826 l 300 609 l 588 609 q 597 523 597 565 q 588 436 597 479 l 300 436 l 300 172 l 673 172 q 682 87 682 130 q 673 0 682 41 l 97 0 l 97 998 m 357 1229 q 425 1236 388 1233 q 499 1238 462 1238 q 569 1236 535 1238 q 626 1229 602 1233 l 421 1084 q 371 1077 396 1079 q 323 1076 346 1076 q 221 1084 271 1076 l 357 1229 "},"~":{"x_min":16.671875,"x_max":645.890625,"ha":661,"o":"m 16 587 q 93 645 44 620 q 206 669 141 669 q 268 660 238 669 q 328 641 298 651 q 388 622 358 630 q 452 613 419 613 q 509 622 483 613 q 570 663 534 632 q 616 603 598 636 q 645 537 634 570 q 568 481 618 504 q 454 458 519 458 q 391 466 422 458 q 329 485 359 475 q 268 504 298 495 q 208 513 238 513 q 150 505 175 513 q 90 465 126 497 q 45 523 65 493 q 16 587 25 554 "},"³":{"x_min":95.84375,"x_max":538.9375,"ha":625,"o":"m 200 691 l 305 857 l 133 857 q 128 888 130 873 q 126 919 126 904 q 133 982 126 950 l 513 982 l 529 952 l 400 766 q 456 747 430 762 q 500 712 481 733 q 529 665 519 691 q 538 611 538 638 q 518 523 538 561 q 462 460 498 486 q 377 421 426 434 q 272 408 329 408 q 225 409 245 408 q 184 413 204 411 q 143 421 163 416 q 95 434 122 426 q 108 501 97 468 q 134 555 119 534 q 204 536 172 544 q 269 529 237 529 q 349 548 315 529 q 383 609 383 568 q 354 656 383 641 q 288 670 325 670 q 262 670 277 670 q 226 662 247 669 l 200 691 "},"¡":{"x_min":97.234375,"x_max":318.078125,"ha":415,"o":"m 113 398 q 206 406 161 406 q 301 398 252 406 l 315 -280 q 208 -288 261 -288 q 100 -280 154 -288 l 113 398 m 105 513 q 97 615 97 565 q 105 718 97 665 q 206 726 156 726 q 309 718 256 726 q 318 616 318 665 q 309 513 318 565 q 208 505 256 505 q 105 513 156 505 "},"[":{"x_min":69.453125,"x_max":408.359375,"ha":478,"o":"m 69 1077 l 400 1077 q 406 1038 404 1057 q 408 1000 408 1020 q 400 919 408 961 l 261 919 l 261 -75 l 400 -75 q 408 -155 408 -116 q 406 -194 408 -176 q 400 -233 404 -212 l 69 -233 l 69 1077 "},"L":{"x_min":97.234375,"x_max":650.046875,"ha":685,"o":"m 97 998 q 195 1007 148 1007 q 297 998 244 1007 l 297 175 l 643 175 q 648 129 647 151 q 650 88 650 108 q 648 45 650 66 q 643 0 647 23 l 97 0 l 97 998 "}," ":{"x_min":0,"x_max":0,"ha":306},"%":{"x_min":69,"x_max":1401.15625,"ha":1458,"o":"m 974 984 q 1071 993 1021 993 q 1167 984 1114 993 l 495 2 q 402 -5 446 -5 q 303 2 355 -5 l 974 984 m 337 540 q 410 584 387 540 q 434 702 434 629 q 410 821 434 777 q 337 865 387 865 q 263 821 287 865 q 239 702 239 777 q 263 584 239 629 q 337 540 287 540 m 337 408 q 216 433 267 408 q 133 499 166 458 q 84 593 100 540 q 69 702 69 645 q 84 813 69 759 q 133 907 100 866 q 216 973 166 948 q 337 998 267 998 q 455 973 405 998 q 539 907 506 948 q 589 813 573 866 q 605 702 605 759 q 589 593 605 645 q 539 499 573 540 q 455 433 506 458 q 337 408 405 408 m 1133 115 q 1206 159 1183 115 q 1230 277 1230 204 q 1206 396 1230 352 q 1133 440 1183 440 q 1059 396 1083 440 q 1035 277 1035 352 q 1059 159 1035 204 q 1133 115 1083 115 m 1133 -16 q 1012 8 1063 -16 q 929 74 962 33 q 880 168 896 115 q 865 277 865 220 q 880 388 865 334 q 929 482 896 441 q 1012 548 962 523 q 1133 573 1063 573 q 1251 548 1201 573 q 1335 482 1302 523 q 1385 388 1369 441 q 1401 277 1401 334 q 1385 168 1401 220 q 1335 74 1369 115 q 1251 8 1302 33 q 1133 -16 1201 -16 "},"P":{"x_min":97.234375,"x_max":758.390625,"ha":810,"o":"m 97 1002 q 226 1011 161 1008 q 358 1015 291 1015 q 499 1001 427 1015 q 628 949 570 987 q 722 843 686 911 q 758 666 758 775 q 722 491 758 558 q 629 384 686 423 q 502 331 572 345 q 363 318 431 318 q 329 318 345 318 q 300 320 313 319 l 300 0 q 248 -5 273 -4 q 200 -6 223 -6 q 151 -5 177 -6 q 97 0 125 -4 l 97 1002 m 300 488 q 331 486 316 486 q 366 486 345 486 q 434 495 401 486 q 493 525 468 504 q 534 579 519 545 q 550 663 550 613 q 534 750 550 715 q 493 807 519 786 q 434 838 468 829 q 366 847 401 847 q 338 846 351 847 q 300 843 325 845 l 300 488 "},"À":{"x_min":13.890625,"x_max":868.125,"ha":883,"o":"m 329 998 q 384 1004 358 1002 q 443 1007 411 1007 q 497 1004 470 1007 q 555 998 523 1002 l 868 0 q 757 -8 811 -8 q 654 0 704 -8 l 598 200 l 268 200 l 211 0 q 115 -8 161 -8 q 13 0 63 -8 l 329 998 m 551 368 l 436 787 l 315 368 l 551 368 m 141 1229 q 198 1236 165 1233 q 268 1238 232 1238 q 342 1236 305 1238 q 409 1229 379 1233 l 546 1084 q 444 1076 496 1076 q 396 1077 421 1076 q 346 1084 371 1079 l 141 1229 "},"_":{"x_min":2.78125,"x_max":697.28125,"ha":700,"o":"m 690 -2 q 695 -38 694 -22 q 697 -73 697 -55 q 695 -104 697 -88 q 690 -138 694 -119 l 9 -138 q 4 -102 5 -119 q 2 -68 2 -86 q 4 -37 2 -52 q 9 -2 5 -22 l 690 -2 "},"ñ":{"x_min":97.234375,"x_max":733.390625,"ha":815,"o":"m 97 718 q 136 724 116 722 q 179 726 155 726 q 220 724 202 726 q 258 718 238 722 q 265 697 262 711 q 272 670 269 684 q 277 641 275 655 q 280 618 279 627 q 313 659 294 638 q 359 697 333 680 q 416 724 384 713 q 487 734 448 734 q 671 668 609 734 q 733 458 733 601 l 733 0 q 634 -8 683 -8 q 536 0 586 -8 l 536 405 q 513 520 536 480 q 433 561 490 561 q 384 554 409 561 q 339 527 359 547 q 306 470 319 506 q 294 376 294 434 l 294 0 q 195 -8 244 -8 q 97 0 147 -8 l 97 718 m 159 940 q 221 992 183 970 q 311 1013 259 1013 q 361 1006 337 1013 q 409 989 386 998 q 458 973 433 980 q 509 965 483 965 q 554 972 533 965 q 604 1008 575 979 q 641 955 626 984 q 664 897 657 926 q 601 846 640 866 q 511 826 562 826 q 459 834 484 826 q 410 850 434 841 q 361 867 386 859 q 312 875 337 875 q 266 867 286 875 q 218 832 247 859 q 182 884 198 857 q 159 940 165 911 "},"+":{"x_min":105.5625,"x_max":726.453125,"ha":833,"o":"m 331 406 l 113 406 q 105 490 105 448 q 113 575 105 533 l 331 575 l 331 820 q 415 829 373 829 q 500 820 458 829 l 500 575 l 718 575 q 726 491 726 533 q 718 406 726 448 l 500 406 l 500 161 q 416 152 458 152 q 331 161 373 152 l 331 406 "},"½":{"x_min":83.453125,"x_max":1385.9375,"ha":1458,"o":"m 248 554 l 248 801 l 143 762 q 107 813 120 786 q 83 880 94 841 l 365 988 l 400 988 l 400 554 l 518 554 q 523 520 522 536 q 525 490 525 505 q 523 456 525 470 q 518 423 522 443 l 132 423 q 123 456 125 441 q 120 490 120 470 q 123 522 120 506 q 132 554 125 537 l 248 554 m 920 28 l 1105 230 q 1188 378 1188 322 q 1166 421 1188 404 q 1103 439 1144 439 q 1041 432 1067 439 q 978 410 1015 426 q 956 471 966 439 q 941 539 945 503 q 1028 566 987 557 q 1123 576 1069 576 q 1289 528 1226 576 q 1352 393 1352 480 q 1318 274 1352 326 q 1227 157 1284 222 l 1205 133 l 1380 133 q 1385 69 1385 107 q 1380 1 1385 29 l 931 1 l 920 28 m 984 984 q 1081 993 1031 993 q 1177 984 1124 993 l 505 2 q 412 -5 456 -5 q 313 2 365 -5 l 984 984 "},"Æ":{"x_min":13.890625,"x_max":1273.71875,"ha":1329,"o":"m 576 998 l 1255 998 q 1263 913 1263 957 q 1255 826 1263 868 l 891 826 l 891 609 l 1180 609 q 1188 523 1188 565 q 1180 436 1188 479 l 891 436 l 891 172 l 1265 172 q 1273 87 1273 130 q 1265 0 1273 41 l 688 0 l 688 205 l 343 205 l 234 0 q 127 -8 184 -8 q 13 0 63 -8 l 576 998 m 688 373 l 688 843 l 680 843 l 431 373 l 688 373 "},"Ë":{"x_min":97.234375,"x_max":682,"ha":738,"o":"m 97 998 l 663 998 q 672 913 672 957 q 663 826 672 868 l 300 826 l 300 609 l 588 609 q 597 523 597 565 q 588 436 597 479 l 300 436 l 300 172 l 673 172 q 682 87 682 130 q 673 0 682 41 l 97 0 l 97 998 m 133 1095 q 128 1136 130 1116 q 126 1177 126 1157 q 128 1218 126 1197 q 133 1259 130 1238 q 178 1266 154 1263 q 222 1268 202 1268 q 265 1266 241 1268 q 312 1259 290 1263 q 317 1218 316 1238 q 319 1177 319 1198 q 317 1137 319 1158 q 312 1095 316 1116 q 266 1090 290 1091 q 222 1088 242 1088 q 179 1090 204 1088 q 133 1095 154 1091 m 440 1095 q 431 1177 431 1137 q 440 1259 431 1218 q 485 1266 460 1263 q 529 1268 509 1268 q 572 1266 548 1268 q 619 1259 597 1263 q 623 1218 622 1238 q 624 1177 624 1198 q 623 1137 624 1158 q 619 1095 622 1116 q 572 1090 597 1091 q 529 1088 548 1088 q 485 1090 509 1088 q 440 1095 460 1091 "},"'":{"x_min":69.453125,"x_max":248.625,"ha":318,"o":"m 69 1000 q 113 1005 93 1004 q 158 1007 134 1007 q 203 1005 181 1007 q 248 1000 225 1004 l 248 609 q 204 604 225 605 q 159 602 183 602 q 114 604 136 602 q 69 609 93 605 l 69 1000 "},"ª":{"x_min":86.125,"x_max":554.21875,"ha":695,"o":"m 398 687 q 372 689 387 688 q 345 690 358 690 q 264 672 294 690 q 234 615 234 655 q 246 577 234 590 q 275 557 258 563 q 309 550 291 551 q 340 548 327 548 q 372 550 358 548 q 398 554 387 551 l 398 687 m 398 795 q 368 858 398 844 q 281 872 338 872 q 222 867 254 872 q 158 851 190 862 q 131 905 140 879 q 123 966 123 932 q 222 990 172 982 q 312 998 272 998 q 490 945 426 998 q 554 773 554 891 l 554 458 q 459 435 518 447 q 337 423 401 423 q 234 434 280 423 q 154 466 187 444 q 104 524 122 488 q 86 609 86 559 q 108 696 86 661 q 165 752 130 732 q 245 782 201 773 q 333 791 290 791 q 366 791 352 791 q 398 788 379 791 l 398 795 "},"ð":{"x_min":56.953125,"x_max":737.5625,"ha":795,"o":"m 290 838 q 183 857 243 854 q 170 930 170 895 q 175 976 170 954 q 187 1020 180 998 q 332 1002 266 1020 q 455 950 398 983 l 566 1025 q 602 986 587 1009 q 629 936 618 963 l 547 882 q 629 779 594 836 q 689 657 665 722 q 725 522 713 593 q 737 380 737 452 q 716 217 737 290 q 653 92 695 144 q 546 11 611 40 q 395 -16 481 -16 q 246 9 309 -16 q 140 82 183 36 q 77 191 98 129 q 56 327 56 254 q 77 465 56 401 q 136 575 97 529 q 234 649 176 622 q 366 676 291 676 q 437 667 402 676 q 500 637 472 658 q 459 716 484 679 q 397 782 433 754 l 272 698 q 237 738 254 713 q 213 788 220 762 l 290 838 m 395 122 q 503 175 470 122 q 536 327 536 227 q 503 480 536 427 q 395 533 470 533 q 288 480 320 533 q 256 327 256 427 q 288 175 256 227 q 395 122 320 122 "},"T":{"x_min":34.71875,"x_max":752.84375,"ha":788,"o":"m 291 826 l 43 826 q 34 913 34 868 q 43 998 34 957 l 744 998 q 752 913 752 957 q 744 826 752 868 l 495 826 l 495 0 q 445 -4 470 -2 q 397 -6 420 -6 q 346 -5 373 -6 q 291 0 319 -4 l 291 826 "},"Þ":{"x_min":97.234375,"x_max":758.390625,"ha":818,"o":"m 97 998 q 148 1004 123 1002 q 197 1005 173 1005 q 245 1004 219 1005 q 300 998 272 1002 l 300 847 q 329 848 315 848 q 358 848 343 848 q 499 834 427 848 q 628 783 570 820 q 722 677 686 745 q 758 501 758 609 q 722 325 758 393 q 628 219 686 256 q 499 168 570 181 q 358 154 427 154 l 300 154 l 300 0 q 245 -5 272 -4 q 197 -6 219 -6 q 148 -5 173 -6 q 97 0 123 -4 l 97 998 m 300 326 q 338 322 325 323 q 366 322 351 322 q 434 330 401 322 q 493 359 468 338 q 534 414 519 380 q 550 501 550 448 q 534 587 550 552 q 493 643 519 622 q 434 672 468 663 q 366 680 401 680 q 338 679 351 680 q 300 676 325 679 l 300 326 "},"j":{"x_min":-68.0625,"x_max":329.1875,"ha":426,"o":"m 137 568 l 43 568 q 36 606 38 586 q 34 644 34 626 q 43 718 34 682 l 329 718 l 329 -15 q 262 -207 329 -148 q 69 -266 195 -266 q -1 -262 34 -266 q -68 -251 -37 -258 q -62 -175 -68 -211 q -43 -108 -56 -140 q -9 -113 -29 -111 q 29 -116 9 -116 q 71 -111 51 -116 q 106 -90 91 -105 q 129 -50 120 -76 q 137 19 137 -23 l 137 568 m 106 843 q 100 891 101 872 q 98 932 98 911 q 100 973 98 954 q 106 1020 101 993 q 160 1030 133 1027 q 208 1033 187 1033 q 255 1030 227 1033 q 308 1020 283 1027 q 315 973 313 993 q 316 932 316 954 q 315 891 316 911 q 308 843 313 872 q 255 834 283 836 q 208 832 227 832 q 160 834 187 832 q 106 843 133 836 "},"1":{"x_min":116.671875,"x_max":758.390625,"ha":833,"o":"m 361 166 l 361 652 l 190 584 q 145 655 163 619 q 116 733 127 693 l 515 908 l 552 908 l 552 166 l 751 166 q 757 123 755 143 q 758 84 758 104 q 757 43 758 62 q 751 0 755 23 l 159 0 q 154 43 155 23 q 152 84 152 62 q 154 123 152 104 q 159 166 155 143 l 361 166 "},"ä":{"x_min":52.78125,"x_max":647.28125,"ha":725,"o":"m 455 329 q 419 334 438 331 q 384 336 400 336 q 277 311 316 336 q 237 233 237 287 q 252 177 237 197 q 289 149 268 158 q 335 138 311 140 q 377 136 359 136 q 419 139 398 136 q 455 145 440 143 l 455 329 m 455 472 q 444 526 455 505 q 413 559 433 547 q 366 575 394 570 q 302 579 337 579 q 143 550 227 579 q 113 618 123 586 q 104 694 104 650 q 226 725 165 715 q 340 734 287 734 q 566 665 484 734 q 647 443 647 595 l 647 26 q 529 -2 598 11 q 372 -16 459 -16 q 242 -4 301 -16 q 140 37 183 8 q 75 112 98 66 q 52 225 52 158 q 81 336 52 291 q 154 409 109 381 q 255 447 200 436 q 366 459 311 459 q 455 455 406 459 l 455 472 m 129 823 q 124 864 126 844 q 122 905 122 884 q 124 945 122 925 q 129 987 126 966 q 174 993 150 991 q 218 995 198 995 q 261 993 237 995 q 308 987 286 991 q 313 946 312 966 q 315 905 315 926 q 313 865 315 886 q 308 823 312 844 q 262 818 286 819 q 218 816 238 816 q 175 818 200 816 q 129 823 150 819 m 436 823 q 427 905 427 865 q 436 987 427 945 q 481 993 456 991 q 525 995 505 995 q 568 993 544 995 q 615 987 593 991 q 619 946 618 966 q 620 905 620 926 q 619 865 620 886 q 615 823 618 844 q 568 818 593 819 q 525 816 544 816 q 481 818 505 816 q 436 823 456 819 "},"<":{"x_min":119.453125,"x_max":715.328125,"ha":833,"o":"m 707 801 q 715 713 715 747 q 713 666 715 690 q 708 622 712 643 l 288 470 l 708 327 q 713 284 712 306 q 715 237 715 261 q 713 193 715 218 q 707 140 712 168 l 131 368 q 119 476 119 423 q 131 575 119 525 l 707 801 "},"£":{"x_min":105.5625,"x_max":773.671875,"ha":833,"o":"m 119 19 l 137 34 q 186 95 166 59 q 219 170 206 131 q 238 246 231 209 q 244 308 244 283 q 242 353 244 330 q 237 400 240 376 l 112 400 q 106 440 108 422 q 105 477 105 458 q 106 512 105 495 q 112 550 108 529 l 213 550 q 204 621 208 586 q 201 693 201 657 q 221 804 201 750 q 283 902 241 859 q 388 972 325 945 q 538 998 451 998 q 668 987 615 998 q 768 957 720 976 q 755 882 765 925 q 723 795 745 840 q 648 822 684 811 q 556 833 612 833 q 484 818 513 833 q 438 782 455 804 q 413 732 420 759 q 405 677 405 704 q 409 608 405 637 q 418 550 412 579 l 634 550 q 640 509 638 527 q 641 472 641 491 q 640 437 641 454 q 634 400 638 420 l 441 400 q 444 376 443 388 q 445 352 445 363 q 438 264 445 305 q 408 175 431 223 l 766 175 q 772 129 770 151 q 773 88 773 108 q 772 45 773 66 q 766 0 770 23 l 125 0 l 119 19 "},"¹":{"x_min":94.453125,"x_max":536.15625,"ha":625,"o":"m 259 554 l 259 801 l 154 762 q 118 813 131 786 q 94 880 105 841 l 376 988 l 411 988 l 411 554 l 529 554 q 534 520 533 536 q 536 490 536 505 q 534 456 536 470 q 529 423 533 443 l 143 423 q 134 456 136 441 q 131 490 131 470 q 134 522 131 506 q 143 554 136 537 l 259 554 "},"t":{"x_min":19.453125,"x_max":511.15625,"ha":532,"o":"m 116 568 l 26 568 l 19 595 l 279 927 l 311 927 l 311 718 l 479 718 q 484 680 483 697 q 486 645 486 663 q 484 608 486 626 q 479 568 483 590 l 311 568 l 311 286 q 318 216 311 243 q 338 175 325 190 q 370 154 351 159 q 416 148 390 148 q 457 152 437 148 q 493 158 477 155 q 506 103 502 131 q 511 52 511 75 q 510 27 511 37 q 508 6 509 16 q 376 -8 444 -8 q 183 50 250 -8 q 116 243 116 109 l 116 568 "},"¬":{"x_min":120.84375,"x_max":722.28125,"ha":833,"o":"m 722 576 l 722 176 q 637 168 680 168 q 551 176 593 168 l 551 405 l 129 405 q 120 490 120 447 q 129 576 120 534 l 722 576 "},"ù":{"x_min":84.734375,"x_max":712.5625,"ha":795,"o":"m 84 718 q 183 726 134 726 q 281 718 231 726 l 281 337 q 291 243 281 280 q 318 185 300 206 q 365 154 337 163 q 430 145 393 145 q 516 155 481 145 l 516 718 q 613 726 566 726 q 712 718 662 726 l 712 27 q 595 -2 668 12 q 443 -16 522 -16 q 306 -5 372 -16 q 192 41 241 5 q 113 147 143 77 q 84 331 84 216 l 84 718 m 146 998 q 199 1004 173 1002 q 261 1007 225 1007 q 386 998 329 1007 l 541 827 q 451 819 496 819 q 398 822 423 819 q 355 827 373 825 l 146 998 "},"W":{"x_min":22.21875,"x_max":1259.828125,"ha":1279,"o":"m 22 998 q 136 1007 72 1007 q 186 1005 161 1007 q 237 998 212 1004 l 380 247 l 552 998 q 604 1004 580 1002 q 652 1007 627 1007 q 743 998 694 1007 l 922 227 l 1065 998 q 1154 1007 1108 1007 q 1208 1004 1182 1007 q 1259 998 1234 1001 l 1019 0 q 915 -8 969 -8 q 800 0 862 -8 l 640 665 l 468 0 q 409 -5 434 -2 q 352 -8 383 -8 q 259 0 309 -8 l 22 998 "},"ï":{"x_min":-35.765625,"x_max":462.875,"ha":426,"o":"m 136 568 l 43 568 q 36 606 38 586 q 34 644 34 626 q 43 718 34 682 l 329 718 l 329 0 q 231 -8 279 -8 q 136 0 186 -8 l 136 568 m -28 823 q -33 864 -31 844 q -35 905 -35 884 q -33 945 -35 925 q -28 987 -31 966 q 16 993 -7 991 q 60 995 40 995 q 103 993 79 995 q 150 987 128 991 q 155 946 154 966 q 157 905 157 926 q 155 865 157 886 q 150 823 154 844 q 104 818 128 819 q 60 816 80 816 q 17 818 42 816 q -28 823 -7 819 m 278 823 q 269 905 269 865 q 278 987 269 945 q 323 993 298 991 q 367 995 347 995 q 410 993 386 995 q 457 987 435 991 q 461 946 460 966 q 462 905 462 926 q 461 865 462 886 q 457 823 460 844 q 410 818 435 819 q 367 816 386 816 q 323 818 347 816 q 278 823 298 819 "},">":{"x_min":118.0625,"x_max":713.953125,"ha":833,"o":"m 544 470 l 125 613 q 119 657 120 634 q 118 704 118 680 q 119 748 118 723 q 126 801 120 773 l 701 573 q 713 465 713 516 q 701 366 713 416 l 126 140 q 118 227 118 194 q 119 275 118 251 q 125 319 120 298 l 544 470 "},"v":{"x_min":6.9375,"x_max":748.671875,"ha":756,"o":"m 6 716 q 68 725 40 723 q 118 726 97 726 q 173 725 145 726 q 225 718 201 723 l 381 183 l 536 718 q 586 724 559 722 q 638 726 612 726 q 686 725 659 726 q 748 716 713 723 l 476 0 q 420 -5 450 -4 q 372 -6 391 -6 q 325 -5 351 -6 q 275 1 298 -4 l 6 716 "},"û":{"x_min":84.734375,"x_max":712.5625,"ha":795,"o":"m 84 718 q 183 726 134 726 q 281 718 231 726 l 281 337 q 291 243 281 280 q 318 185 300 206 q 365 154 337 163 q 430 145 393 145 q 516 155 481 145 l 516 718 q 613 726 566 726 q 712 718 662 726 l 712 27 q 595 -2 668 12 q 443 -16 522 -16 q 306 -5 372 -16 q 192 41 241 5 q 113 147 143 77 q 84 331 84 216 l 84 718 m 288 998 q 344 1003 312 1001 q 405 1005 376 1005 q 451 1004 423 1005 q 507 997 480 1002 l 642 826 q 557 818 610 818 q 505 820 534 818 q 453 827 477 822 l 396 916 l 341 827 q 297 820 323 822 q 246 818 271 818 q 152 826 191 818 l 288 998 "},"Ò":{"x_min":70.84375,"x_max":937.578125,"ha":1008,"o":"m 504 -16 q 309 22 391 -16 q 175 129 227 61 q 96 292 122 198 q 70 497 70 386 q 96 703 70 608 q 175 868 122 798 q 309 976 227 937 q 504 1015 391 1015 q 698 976 616 1015 q 833 868 780 937 q 911 703 886 798 q 937 497 937 608 q 911 292 937 386 q 833 129 886 198 q 698 22 780 61 q 504 -16 616 -16 m 504 152 q 719 497 719 152 q 667 755 719 669 q 505 841 615 841 q 287 497 287 841 q 504 152 287 152 m 202 1229 q 259 1236 226 1233 q 329 1238 293 1238 q 403 1236 366 1238 q 470 1229 440 1233 l 607 1084 q 505 1076 557 1076 q 457 1077 482 1076 q 407 1084 432 1079 l 202 1229 "},"&":{"x_min":68.0625,"x_max":1025.078125,"ha":1060,"o":"m 682 647 l 845 843 l 876 843 l 876 647 l 1018 647 q 1023 609 1022 626 q 1025 575 1025 593 q 1023 537 1025 555 q 1018 497 1022 519 l 876 497 l 876 327 q 846 177 876 241 q 760 70 816 113 q 625 4 704 26 q 447 -16 545 -16 q 306 0 375 -16 q 185 51 238 15 q 100 144 131 87 q 68 283 68 201 q 82 377 68 333 q 120 458 97 422 q 174 520 144 494 q 234 558 204 545 q 145 636 183 586 q 108 763 108 687 q 132 873 108 826 q 199 952 156 920 q 297 999 241 983 q 419 1015 354 1015 q 510 1009 459 1015 q 615 983 561 1002 q 572 837 615 904 q 490 857 526 854 q 429 861 454 861 q 333 829 362 861 q 304 755 304 798 q 311 711 304 732 q 334 677 318 691 q 378 654 351 662 q 445 647 405 647 l 682 647 m 684 497 l 451 497 q 331 449 376 497 q 286 325 286 401 q 328 200 286 247 q 469 152 370 152 q 577 172 536 152 q 641 223 618 191 q 674 295 665 255 q 684 379 683 336 l 684 497 "},"Ð":{"x_min":0,"x_max":902.84375,"ha":974,"o":"m 102 452 l 8 452 q 0 522 0 487 q 8 593 0 556 l 102 593 l 102 998 q 225 1010 161 1005 q 366 1015 288 1015 q 766 884 629 1015 q 902 493 902 754 q 763 106 902 230 q 351 -16 625 -16 q 220 -11 280 -16 q 102 0 161 -6 l 102 452 m 306 161 q 338 158 319 159 q 386 156 358 156 q 504 171 450 156 q 600 225 559 186 q 663 329 640 263 q 687 497 687 394 q 663 663 687 597 q 600 769 640 730 q 507 824 559 808 q 397 840 455 840 q 352 839 377 840 q 306 836 326 838 l 306 593 l 500 593 q 508 523 508 556 q 500 452 508 487 l 306 452 l 306 161 "},"I":{"x_min":97.234375,"x_max":301.40625,"ha":399,"o":"m 97 998 q 198 1007 148 1007 q 301 998 248 1007 l 301 0 q 200 -8 248 -8 q 97 0 148 -8 l 97 998 "},"G":{"x_min":70.84375,"x_max":847.296875,"ha":928,"o":"m 645 518 q 745 526 697 526 q 847 518 794 526 l 847 27 q 696 -7 775 1 q 559 -16 618 -16 q 345 21 437 -16 q 193 128 254 59 q 101 291 131 197 q 70 497 70 386 q 102 703 70 608 q 195 868 134 798 q 343 976 255 937 q 544 1015 431 1015 q 668 1007 611 1015 q 788 972 726 998 q 772 891 786 930 q 741 811 758 851 q 655 834 693 827 q 566 841 618 841 q 361 754 433 841 q 290 497 290 668 q 361 242 290 326 q 569 158 431 158 q 611 161 593 158 q 645 166 630 163 l 645 518 "},"`":{"x_min":150.015625,"x_max":545.875,"ha":695,"o":"m 150 998 q 203 1004 177 1002 q 265 1007 229 1007 q 390 998 333 1007 l 545 827 q 455 819 500 819 q 402 822 427 819 q 359 827 377 825 l 150 998 "},"·":{"x_min":94.453125,"x_max":306.96875,"ha":401,"o":"m 102 283 q 94 380 94 333 q 102 479 94 429 q 200 487 152 487 q 298 479 248 487 q 306 381 306 429 q 298 283 306 333 q 201 275 248 275 q 102 283 152 275 "},"r":{"x_min":97.234375,"x_max":530.59375,"ha":558,"o":"m 97 718 q 136 724 118 722 q 177 726 155 726 q 218 723 198 726 q 258 716 238 720 q 265 696 262 709 q 272 668 269 683 q 277 639 275 654 q 280 615 279 625 q 355 692 311 658 q 466 726 400 726 q 498 725 480 726 q 525 720 516 723 q 529 688 527 707 q 530 651 530 670 q 528 600 530 627 q 520 547 526 572 q 486 550 505 550 q 463 550 468 550 q 411 545 440 550 q 355 519 381 540 q 311 456 329 498 q 294 340 294 415 l 294 -1 q 244 -6 269 -5 q 195 -8 219 -8 q 147 -6 172 -8 q 97 -1 123 -5 l 97 718 "},"¿":{"x_min":79.171875,"x_max":662.546875,"ha":685,"o":"m 298 404 q 391 412 345 412 q 479 404 437 412 l 479 165 q 412 149 447 159 q 348 120 377 138 q 300 75 319 102 q 281 8 281 47 q 325 -82 281 -51 q 438 -113 368 -113 q 491 -111 468 -113 q 533 -104 513 -109 q 572 -93 552 -100 q 615 -79 591 -87 q 647 -154 634 -115 q 662 -234 659 -193 q 595 -256 626 -247 q 536 -270 565 -265 q 477 -278 506 -276 q 415 -280 448 -280 q 163 -204 248 -280 q 79 2 79 -129 q 104 115 79 68 q 164 195 129 162 q 237 247 200 227 q 298 277 275 266 l 298 404 m 288 513 q 280 615 280 565 q 288 718 280 665 q 390 726 340 726 q 493 718 440 726 q 501 616 501 665 q 493 513 501 565 q 391 505 440 505 q 288 513 340 505 "},"ý":{"x_min":13.890625,"x_max":741.71875,"ha":753,"o":"m 13 718 q 70 725 45 725 q 115 726 94 726 q 172 725 143 726 q 225 718 201 723 l 375 91 l 544 718 q 638 726 590 726 q 683 725 659 726 q 741 718 707 725 l 473 -169 q 434 -256 456 -222 q 381 -311 411 -291 q 316 -338 352 -330 q 238 -345 280 -345 q 168 -341 200 -345 q 106 -327 137 -336 q 105 -316 105 -320 q 105 -305 105 -311 q 113 -242 105 -272 q 131 -184 120 -212 q 165 -192 144 -188 q 206 -195 186 -195 q 240 -193 223 -195 q 272 -181 256 -191 q 302 -148 288 -170 q 327 -86 316 -126 l 351 0 q 317 -2 336 -1 q 279 -2 298 -2 q 250 -2 263 -2 q 225 0 236 -2 l 13 718 m 381 998 q 506 1007 437 1007 q 568 1004 542 1007 q 621 998 594 1002 l 412 827 q 369 822 394 825 q 316 819 344 819 q 226 827 271 819 l 381 998 "},"x":{"x_min":20.828125,"x_max":720.890625,"ha":742,"o":"m 184 370 l 47 718 q 148 726 93 726 q 255 718 201 726 l 365 366 l 222 0 q 123 -8 172 -8 q 20 0 75 -8 l 184 370 m 375 366 l 486 718 q 593 726 537 726 q 694 718 644 726 l 555 370 l 720 0 q 618 -8 666 -8 q 519 0 569 -8 l 375 366 "},"è":{"x_min":59.734375,"x_max":722.28125,"ha":781,"o":"m 254 298 q 312 177 259 215 q 451 140 365 140 q 547 149 498 140 q 641 175 597 158 q 668 108 657 147 q 680 25 679 69 q 436 -16 572 -16 q 264 11 336 -16 q 147 88 193 38 q 81 205 102 137 q 59 354 59 273 q 81 502 59 433 q 147 623 104 572 q 256 704 191 675 q 406 734 320 734 q 540 708 481 734 q 639 636 598 682 q 701 527 680 590 q 722 391 722 463 q 720 339 722 365 q 715 298 718 313 l 254 298 m 536 436 q 499 543 533 502 q 404 584 465 584 q 298 545 334 584 q 255 436 262 506 l 536 436 m 143 998 q 196 1004 170 1002 q 258 1007 222 1007 q 383 998 326 1007 l 538 827 q 448 819 493 819 q 395 822 420 819 q 352 827 370 825 l 143 998 "},"º":{"x_min":86.125,"x_max":607,"ha":695,"o":"m 345 536 q 422 582 398 536 q 447 704 447 629 q 422 827 447 782 q 345 872 398 872 q 270 827 294 872 q 245 704 245 782 q 270 582 245 629 q 345 536 294 536 m 345 411 q 230 436 279 411 q 149 502 181 461 q 101 595 116 543 q 86 704 86 648 q 101 813 86 759 q 149 907 116 866 q 230 973 181 948 q 345 998 279 998 q 461 973 412 998 q 543 907 511 948 q 591 813 576 866 q 607 704 607 759 q 591 595 607 648 q 543 502 576 543 q 461 436 511 461 q 345 411 412 411 "},"Ø":{"x_min":70.84375,"x_max":937.578125,"ha":1008,"o":"m 170 133 q 95 295 119 202 q 70 497 70 387 q 96 703 70 608 q 175 868 122 798 q 309 976 227 937 q 504 1015 391 1015 q 646 995 583 1015 q 758 940 709 976 l 800 997 q 857 1005 825 1005 q 923 998 893 1005 l 830 870 q 911 705 884 801 q 937 497 937 609 q 911 292 937 386 q 833 129 886 198 q 698 22 780 61 q 504 -16 616 -16 q 355 4 420 -16 q 240 63 290 25 l 195 1 q 166 -4 181 -2 q 136 -5 151 -5 q 102 -4 118 -5 q 73 0 86 -2 l 170 133 m 354 219 q 504 152 408 152 q 719 497 719 152 q 695 687 719 608 l 354 219 m 644 784 q 505 841 594 841 q 287 497 287 841 q 291 400 287 444 q 306 319 295 355 l 644 784 "},"÷":{"x_min":116.671875,"x_max":718.109375,"ha":833,"o":"m 301 776 q 334 857 301 823 q 415 891 368 891 q 496 857 462 891 q 530 776 530 823 q 496 695 530 729 q 415 662 462 662 q 334 695 368 662 q 301 776 301 729 m 301 212 q 334 293 301 259 q 415 327 368 327 q 496 293 462 327 q 530 212 530 259 q 496 131 530 165 q 415 98 462 98 q 334 131 368 98 q 301 212 301 165 m 709 575 q 718 491 718 533 q 709 406 718 448 l 125 406 q 116 490 116 448 q 125 575 116 533 l 709 575 "},"h":{"x_min":94.453125,"x_max":732,"ha":814,"o":"m 94 1015 q 143 1020 118 1019 q 191 1022 168 1022 q 240 1020 215 1022 q 290 1015 265 1019 l 290 633 q 316 663 300 645 q 355 696 331 680 q 412 723 379 712 q 488 734 445 734 q 670 668 608 734 q 732 458 732 601 l 732 -1 q 682 -6 707 -5 q 633 -8 657 -8 q 584 -6 609 -8 q 534 -1 559 -5 l 534 405 q 511 520 534 480 q 430 561 487 561 q 381 554 406 561 q 336 527 356 547 q 303 470 316 506 q 290 376 290 434 l 290 -1 q 240 -6 265 -5 q 191 -8 215 -8 q 143 -6 168 -8 q 94 -1 119 -5 l 94 1015 "},".":{"x_min":90.28125,"x_max":311.140625,"ha":401,"o":"m 98 0 q 90 101 90 51 q 98 204 90 151 q 200 212 150 212 q 302 204 250 212 q 311 102 311 151 q 302 0 311 51 q 201 -8 250 -8 q 98 0 150 -8 "},";":{"x_min":39.21875,"x_max":340.140625,"ha":431,"o":"m 130 200 q 178 207 154 205 q 223 209 201 209 q 272 207 246 209 q 322 200 298 205 l 221 -155 q 173 -162 197 -161 q 128 -163 150 -163 q 84 -162 105 -163 q 39 -155 62 -161 l 130 200 m 127 514 q 119 615 119 565 q 127 718 119 665 q 229 726 179 726 q 331 718 279 726 q 340 616 340 665 q 331 514 340 565 q 230 505 279 505 q 127 514 179 505 "},"f":{"x_min":23.609375,"x_max":558.375,"ha":550,"o":"m 144 568 l 30 568 q 25 608 26 590 q 23 645 23 626 q 25 680 23 663 q 30 718 26 697 l 144 718 l 144 752 q 164 871 144 819 q 222 959 184 923 q 311 1013 259 994 q 426 1032 363 1032 q 496 1028 468 1032 q 558 1015 525 1025 q 549 932 555 969 q 529 859 543 895 q 497 866 513 862 q 452 869 480 869 q 373 846 404 869 q 340 748 343 823 l 340 718 l 506 718 q 512 677 511 695 q 513 640 513 659 q 512 605 513 622 q 506 568 511 588 l 340 568 l 340 0 q 243 -8 290 -8 q 144 0 194 -8 l 144 568 "},"A":{"x_min":13.890625,"x_max":868.125,"ha":883,"o":"m 329 998 q 384 1004 358 1002 q 443 1007 411 1007 q 497 1004 470 1007 q 555 998 523 1002 l 868 0 q 757 -8 811 -8 q 654 0 704 -8 l 598 200 l 268 200 l 211 0 q 115 -8 161 -8 q 13 0 63 -8 l 329 998 m 551 368 l 436 787 l 315 368 l 551 368 "},"6":{"x_min":79.171875,"x_max":787.5625,"ha":833,"o":"m 629 1007 q 641 962 636 984 q 645 916 645 940 q 633 843 645 882 q 495 815 555 840 q 393 749 436 790 q 324 655 351 708 q 287 544 297 602 q 317 579 300 562 q 359 611 334 597 q 415 635 383 626 q 488 644 447 644 q 602 624 548 644 q 697 564 657 604 q 763 463 738 525 q 787 322 787 402 q 757 175 787 238 q 679 69 727 112 q 566 4 630 26 q 436 -16 502 -16 q 170 84 262 -16 q 79 388 79 186 q 112 625 79 515 q 213 818 145 736 q 385 950 281 901 q 629 1007 488 1000 m 431 144 q 538 187 495 144 q 581 318 581 230 q 541 449 581 409 q 437 488 500 488 q 327 447 368 488 q 286 325 286 406 q 325 190 286 237 q 431 144 365 144 "},"O":{"x_min":70.84375,"x_max":937.578125,"ha":1008,"o":"m 504 -16 q 309 22 391 -16 q 175 129 227 61 q 96 292 122 198 q 70 497 70 386 q 96 703 70 608 q 175 868 122 798 q 309 976 227 937 q 504 1015 391 1015 q 698 976 616 1015 q 833 868 780 937 q 911 703 886 798 q 937 497 937 608 q 911 292 937 386 q 833 129 886 198 q 698 22 780 61 q 504 -16 616 -16 m 504 152 q 719 497 719 152 q 667 755 719 669 q 505 841 615 841 q 287 497 287 841 q 504 152 287 152 "},"n":{"x_min":97.234375,"x_max":733.390625,"ha":815,"o":"m 97 718 q 136 724 116 722 q 179 726 155 726 q 220 724 202 726 q 258 718 238 722 q 265 697 262 711 q 272 670 269 684 q 277 641 275 655 q 280 618 279 627 q 313 659 294 638 q 359 697 333 680 q 416 724 384 713 q 487 734 448 734 q 671 668 609 734 q 733 458 733 601 l 733 0 q 634 -8 683 -8 q 536 0 586 -8 l 536 405 q 513 520 536 480 q 433 561 490 561 q 384 554 409 561 q 339 527 359 547 q 306 470 319 506 q 294 376 294 434 l 294 0 q 195 -8 244 -8 q 97 0 147 -8 l 97 718 "},"3":{"x_min":55.5625,"x_max":723.671875,"ha":833,"o":"m 233 400 l 419 736 l 113 736 q 105 819 105 777 q 113 905 105 863 l 694 905 l 708 882 l 484 511 l 490 511 q 588 490 544 511 q 661 435 632 469 q 707 356 691 401 q 723 266 723 312 q 693 110 723 177 q 608 -2 662 43 q 480 -70 554 -47 q 320 -93 406 -93 q 246 -90 279 -93 q 184 -83 213 -88 q 123 -68 154 -77 q 55 -47 93 -59 q 71 38 58 -4 q 104 115 84 81 q 203 87 156 98 q 311 76 250 76 q 395 86 355 76 q 463 118 434 97 q 510 173 493 140 q 527 254 527 206 q 512 314 527 288 q 472 356 497 340 q 413 381 447 373 q 344 388 380 388 q 295 387 320 388 q 247 379 270 386 l 233 400 "},"9":{"x_min":63.890625,"x_max":772.28125,"ha":833,"o":"m 222 -104 q 210 -59 215 -81 q 205 -13 205 -37 q 218 59 205 19 q 354 87 294 62 q 457 153 415 112 q 526 247 500 194 q 563 358 552 300 q 534 322 551 340 q 492 290 516 305 q 436 267 468 276 q 362 258 404 258 q 248 278 302 258 q 153 338 194 298 q 88 438 112 377 q 63 580 63 498 q 93 727 63 663 q 172 833 123 790 q 284 897 220 876 q 415 919 348 919 q 680 818 588 919 q 772 513 772 716 q 738 277 772 387 q 637 84 705 166 q 466 -48 569 1 q 222 -104 362 -98 m 413 413 q 524 454 483 413 q 565 577 565 495 q 525 711 565 665 q 419 758 486 758 q 312 715 355 758 q 269 584 269 672 q 310 453 269 493 q 413 413 351 413 "},"l":{"x_min":91.671875,"x_max":441.703125,"ha":450,"o":"m 91 1015 q 190 1023 141 1023 q 287 1015 237 1023 l 287 286 q 292 216 287 243 q 307 175 297 190 q 334 155 318 161 q 376 150 351 150 q 400 151 387 150 q 426 155 413 152 q 441 44 441 98 q 441 24 441 33 q 438 4 441 15 q 385 -5 416 -2 q 327 -8 354 -8 q 156 50 220 -8 q 91 243 91 109 l 91 1015 "},"¤":{"x_min":54.171875,"x_max":780.625,"ha":833,"o":"m 151 323 q 111 475 111 391 q 154 629 111 559 l 54 730 q 100 795 72 769 q 165 841 127 820 l 268 738 q 419 777 337 777 q 569 738 500 777 l 670 841 q 732 794 702 820 q 780 732 761 768 l 682 634 q 729 475 729 561 q 717 392 729 431 q 684 319 705 352 l 780 225 q 732 163 759 193 q 670 115 705 134 l 573 213 q 419 173 504 173 q 262 213 331 173 l 165 115 q 100 161 126 133 q 54 226 75 190 l 151 323 m 419 327 q 475 339 450 327 q 520 371 501 351 q 550 418 538 391 q 561 475 561 444 q 550 533 561 505 q 520 581 538 561 q 475 613 501 601 q 419 625 450 625 q 364 613 390 625 q 320 581 338 601 q 290 533 301 561 q 279 475 279 505 q 290 418 279 444 q 320 371 301 391 q 364 339 338 351 q 419 327 390 327 "},"4":{"x_min":22.21875,"x_max":801.453125,"ha":833,"o":"m 22 131 l 415 926 q 506 906 462 920 q 588 861 550 891 l 302 280 l 501 280 l 501 502 q 547 507 525 505 q 593 509 569 509 q 643 507 618 509 q 693 502 668 505 l 693 280 l 793 280 q 801 197 801 240 q 799 154 801 176 q 793 112 797 131 l 693 112 l 693 -81 q 647 -86 669 -84 q 601 -88 625 -88 q 551 -86 576 -88 q 501 -81 526 -84 l 501 112 l 34 112 l 22 131 "},"p":{"x_min":93.0625,"x_max":763.953125,"ha":821,"o":"m 93 719 q 131 725 112 723 q 173 726 150 726 q 252 718 212 726 q 260 697 256 711 q 267 669 263 684 q 272 639 270 654 q 276 615 275 625 q 306 659 288 637 q 350 697 325 680 q 408 724 376 713 q 479 734 440 734 q 591 712 538 734 q 682 645 643 690 q 742 531 720 600 q 763 370 763 463 q 737 209 763 280 q 661 87 711 137 q 538 10 611 37 q 375 -16 466 -16 q 328 -14 351 -16 q 290 -9 305 -12 l 290 -329 q 239 -334 263 -333 q 191 -336 215 -336 q 143 -334 168 -336 q 93 -329 119 -333 l 93 719 m 290 152 q 376 141 327 141 q 508 197 462 141 q 554 365 554 252 q 547 445 554 408 q 523 508 540 481 q 481 550 506 534 q 418 565 455 565 q 359 552 383 565 q 319 516 334 538 q 297 462 304 493 q 290 397 290 431 l 290 152 "},"à":{"x_min":52.78125,"x_max":647.28125,"ha":725,"o":"m 455 329 q 419 334 438 331 q 384 336 400 336 q 277 311 316 336 q 237 233 237 287 q 252 177 237 197 q 289 149 268 158 q 335 138 311 140 q 377 136 359 136 q 419 139 398 136 q 455 145 440 143 l 455 329 m 455 472 q 444 526 455 505 q 413 559 433 547 q 366 575 394 570 q 302 579 337 579 q 143 550 227 579 q 113 618 123 586 q 104 694 104 650 q 226 725 165 715 q 340 734 287 734 q 566 665 484 734 q 647 443 647 595 l 647 26 q 529 -2 598 11 q 372 -16 459 -16 q 242 -4 301 -16 q 140 37 183 8 q 75 112 98 66 q 52 225 52 158 q 81 336 52 291 q 154 409 109 381 q 255 447 200 436 q 366 459 311 459 q 455 455 406 459 l 455 472 m 97 998 q 150 1004 124 1002 q 212 1007 176 1007 q 337 998 280 1007 l 492 827 q 402 819 447 819 q 349 822 374 819 q 306 827 324 825 l 97 998 "},"Ü":{"x_min":91.671875,"x_max":841.734375,"ha":932,"o":"m 91 998 q 143 1004 118 1002 q 194 1005 168 1005 q 243 1004 218 1005 q 294 998 268 1002 l 294 480 q 300 335 294 395 q 325 235 306 275 q 378 177 344 195 q 466 158 412 158 q 554 177 520 158 q 606 235 587 195 q 631 335 625 275 q 637 480 637 395 l 637 998 q 690 1004 665 1002 q 738 1005 715 1005 q 789 1004 763 1005 q 841 998 815 1002 l 841 437 q 825 252 841 336 q 765 108 808 168 q 650 15 722 48 q 466 -16 577 -16 q 283 15 355 -16 q 168 108 211 48 q 108 252 125 168 q 91 437 91 336 l 91 998 m 225 1095 q 220 1136 222 1116 q 218 1177 218 1157 q 220 1218 218 1197 q 225 1259 222 1238 q 270 1266 246 1263 q 314 1268 294 1268 q 357 1266 333 1268 q 404 1259 382 1263 q 409 1218 408 1238 q 411 1177 411 1198 q 409 1137 411 1158 q 404 1095 408 1116 q 358 1090 382 1091 q 314 1088 334 1088 q 271 1090 296 1088 q 225 1095 246 1091 m 532 1095 q 523 1177 523 1137 q 532 1259 523 1218 q 577 1266 552 1263 q 621 1268 601 1268 q 664 1266 640 1268 q 711 1259 689 1263 q 715 1218 714 1238 q 716 1177 716 1198 q 715 1137 716 1158 q 711 1095 714 1116 q 664 1090 689 1091 q 621 1088 640 1088 q 577 1090 601 1088 q 532 1095 552 1091 "},"ó":{"x_min":56.953125,"x_max":747.28125,"ha":806,"o":"m 401 -16 q 249 11 313 -16 q 142 90 184 40 q 78 209 100 141 q 56 356 56 277 q 78 505 56 436 q 142 625 100 575 q 249 705 184 676 q 401 734 313 734 q 554 705 488 734 q 662 625 619 676 q 726 505 705 575 q 747 356 747 436 q 726 209 747 277 q 662 90 705 141 q 554 11 619 40 q 401 -16 488 -16 m 401 133 q 513 190 479 133 q 547 356 547 248 q 513 522 547 465 q 401 580 479 580 q 291 522 325 580 q 256 356 256 465 q 291 190 256 248 q 401 133 325 133 m 415 998 q 540 1007 471 1007 q 602 1004 576 1007 q 655 998 628 1002 l 446 827 q 403 822 428 825 q 350 819 378 819 q 260 827 305 819 l 415 998 "}}}
